<svg version="1.1" xmlns="http://www.w3.org/2000/svg" xmlns:xlink="http://www.w3.org/1999/xlink" width="84.06171" height="27.83974" viewBox="0,0,84.06171,27.83974"><g transform="translate(-11.96914,-207.45819)"><g stroke="none" stroke-miterlimit="10"><g fill="#353535"><path d="M17.65187,235.29794v-10.94413h73.22696v10.94413z" stroke-width="0"/><path d="M17.73381,235.10669c-3.10331,0 -5.61902,-2.41076 -5.61902,-5.38458c0,-2.97382 2.51571,-5.38458 5.61902,-5.38458c3.10332,0 5.61903,2.41076 5.61903,5.38458c0,2.97382 -2.51573,5.38458 -5.61903,5.38458z" stroke-width="0.5"/><path d="M90.58226,235.10161c-3.00919,0 -5.4486,-2.4074 -5.4486,-5.37708c0,-2.96968 2.43942,-5.3771 5.4486,-5.3771c3.00918,0 5.4486,2.40742 5.4486,5.3771c0,2.96967 -2.43942,5.37708 -5.4486,5.37708z" stroke-width="0.5"/></g><g fill="#b27215"><path d="M17.58817,222.89149c-3.10332,0 -5.61902,-2.47597 -5.61902,-5.53022c0,-3.05427 2.51571,-5.53022 5.61902,-5.53022c3.10331,0 5.61902,2.47597 5.61902,5.53022c0,3.05427 -2.51573,5.53022 -5.61902,5.53022z" stroke-width="0.5"/><path d="M17.50623,232.96751v-21.13976h73.22696v21.13976z" stroke-width="0"/><path d="M90.43659,222.66642c-3.00919,0 -5.4486,-2.4074 -5.4486,-5.37709c0,-2.96968 2.43942,-5.3771 5.4486,-5.3771c3.00917,0 5.4486,2.40742 5.4486,5.3771c0,2.96967 -2.43942,5.37709 -5.4486,5.37709z" stroke-width="0.5"/><path d="M17.58817,232.77626c-3.10332,0 -5.61902,-2.47597 -5.61902,-5.53022c0,-3.05427 2.51571,-5.53022 5.61902,-5.53022c3.10331,0 5.61902,2.47597 5.61902,5.53022c0,3.05427 -2.51573,5.53022 -5.61902,5.53022z" stroke-width="0.5"/><path d="M90.43659,233.06247c-3.00919,0 -5.4486,-2.4074 -5.4486,-5.37708c0,-2.96968 2.43942,-5.37709 5.4486,-5.37709c3.00917,0 5.4486,2.40742 5.4486,5.37709c0,2.96968 -2.43942,5.37708 -5.4486,5.37708z" stroke-width="0.5"/><path d="M12.00478,227.68379v-10.39606h83.96387v10.39606z" stroke-width="0"/></g><g fill="#ffa31e"><path d="M17.58817,218.52193c-3.10332,0 -5.61902,-2.47597 -5.61902,-5.53022c0,-3.05427 2.51571,-5.53022 5.61902,-5.53022c3.10331,0 5.61902,2.47597 5.61902,5.53022c0,3.05427 -2.51573,5.53022 -5.61902,5.53022z" stroke-width="0.5"/><path d="M17.50623,228.59795v-21.13976h73.22696v21.13976z" stroke-width="0"/><path d="M90.43659,218.29686c-3.00919,0 -5.4486,-2.4074 -5.4486,-5.37709c0,-2.96968 2.43942,-5.3771 5.4486,-5.3771c3.00917,0 5.4486,2.40742 5.4486,5.3771c0,2.96968 -2.43942,5.3771 -5.4486,5.3771z" stroke-width="0.5"/><path d="M17.58817,228.4067c-3.10332,0 -5.61902,-2.47597 -5.61902,-5.53022c0,-3.05427 2.51571,-5.53022 5.61902,-5.53022c3.10331,0 5.61902,2.47597 5.61902,5.53022c0,3.05427 -2.51573,5.53022 -5.61902,5.53022z" stroke-width="0.5"/><path d="M90.43659,228.69291c-3.00919,0 -5.4486,-2.4074 -5.4486,-5.37708c0,-2.96967 2.43942,-5.37709 5.4486,-5.37709c3.00917,0 5.4486,2.40742 5.4486,5.37709c0,2.96968 -2.43942,5.37708 -5.4486,5.37708z" stroke-width="0.5"/><path d="M12.00478,223.31423v-10.39606h83.96387v10.39606z" stroke-width="0"/></g></g></g></svg>