<svg version="1.1" xmlns="http://www.w3.org/2000/svg" xmlns:xlink="http://www.w3.org/1999/xlink" width="108" height="104.66265" viewBox="0,0,108,104.66265"><g transform="translate(0,24.06325)"><g stroke="none" stroke-miterlimit="10"><path d="M3.01987,80.59859c-1.66784,0 -3.01987,-1.33068 -3.01987,-2.97215c0,-1.64148 1.35204,-2.97214 3.01987,-2.97214c1.66784,0 3.01988,1.33067 3.01988,2.97214c0,1.64148 -1.35205,2.97215 -3.01988,2.97215z" fill="#655dca" stroke-width="0.5"/><path d="M2.79064,80.5994v-28.41264h102.30095v28.41264z" fill="#655dca" stroke-width="0"/><path d="M105.07142,80.59424c-1.61725,0 -2.92828,-1.29383 -2.92828,-2.88985c0,-1.59601 1.31103,-2.88985 2.92828,-2.88985c1.61725,0 2.92828,1.29384 2.92828,2.88985c0,1.59601 -1.31103,2.88985 -2.92828,2.88985z" fill="#655dca" stroke-width="0.5"/><path d="M0.02649,77.76927v-101.83252h107.97351v101.83252z" fill="#655dca" stroke-width="0"/><text transform="translate(2.86277,8.35649) scale(0.12851,0.12851)" font-size="40" xml:space="preserve" fill="#ffffff" stroke-width="1" font-family="&quot;Titan1&quot;, Sans Serif" font-weight="normal" text-anchor="start"><tspan x="0" dy="0">scratch.mit.edu/projects/1111603914/</tspan></text><text transform="translate(4.05816,16.51437) scale(0.14052,0.14052)" font-size="40" xml:space="preserve" fill="#ffffff" stroke-width="1" font-family="&quot;Titan1&quot;, Sans Serif" font-weight="normal" text-anchor="start"><tspan x="0" dy="0">type in the game ID below to join.</tspan></text></g></g></svg>