<svg version="1.1" xmlns="http://www.w3.org/2000/svg" xmlns:xlink="http://www.w3.org/1999/xlink" width="84.59622" height="28.23713" viewBox="0,0,84.59622,28.23713"><g transform="translate(-11.70189,-140.97157)"><g stroke="none" stroke-miterlimit="10"><g fill="#353535"><path d="M17.25821,169.2087v-10.98215h73.48138v10.98215z" stroke-width="0"/><path d="M17.34044,169.01679c-3.1141,0 -5.63855,-2.41913 -5.63855,-5.40328c0,-2.98415 2.52445,-5.40329 5.63855,-5.40329c3.1141,0 5.63855,2.41914 5.63855,5.40329c0,2.98415 -2.52447,5.40328 -5.63855,5.40328z" stroke-width="0.5"/><path d="M90.44199,169.01169c-3.01965,0 -5.46753,-2.41576 -5.46753,-5.39576c0,-2.98 2.4479,-5.39577 5.46753,-5.39577c3.01963,0 5.46753,2.41578 5.46753,5.39578c0,2.98 -2.4479,5.39576 -5.46753,5.39576z" stroke-width="0.5"/></g><g fill="#6c3377"><path d="M17.64529,156.45846c-3.1141,0 -5.63855,-2.48457 -5.63855,-5.54943c0,-3.06488 2.52447,-5.54943 5.63855,-5.54943c3.1141,0 5.63855,2.48457 5.63855,5.54943c0,3.06488 -2.52447,5.54943 -5.63855,5.54943z" stroke-width="0.5"/><path d="M17.56306,166.56951v-21.2132h73.48135v21.2132z" stroke-width="0"/><path d="M90.74683,156.23262c-3.01965,0 -5.46753,-2.41576 -5.46753,-5.39577c0,-2.98 2.4479,-5.39577 5.46753,-5.39577c3.01963,0 5.46753,2.41578 5.46753,5.39578c0,2.98 -2.4479,5.39578 -5.46753,5.39578z" stroke-width="0.5"/><path d="M17.64529,166.3776c-3.1141,0 -5.63855,-2.48457 -5.63855,-5.54943c0,-3.06488 2.52447,-5.54943 5.63855,-5.54943c3.1141,0 5.63855,2.48457 5.63855,5.54943c0,3.06488 -2.52447,5.54943 -5.63855,5.54943z" stroke-width="0.5"/><path d="M90.74683,166.6648c-3.01965,0 -5.46753,-2.41576 -5.46753,-5.39577c0,-2.98 2.4479,-5.39577 5.46753,-5.39577c3.01963,0 5.46753,2.41578 5.46753,5.39578c0,2.98 -2.4479,5.39578 -5.46753,5.39578z" stroke-width="0.5"/><path d="M12.04251,161.26743v-10.43218h84.2556v10.43218z" stroke-width="0"/></g><g fill="#9a49aa"><path d="M17.64529,152.07372c-3.1141,0 -5.63855,-2.48457 -5.63855,-5.54943c0,-3.06488 2.52447,-5.54943 5.63855,-5.54943c3.1141,0 5.63855,2.48457 5.63855,5.54943c0,3.06488 -2.52447,5.54943 -5.63855,5.54943z" stroke-width="0.5"/><path d="M17.56306,162.18477v-21.2132h73.48135v21.2132z" stroke-width="0"/><path d="M90.74683,151.84788c-3.01965,0 -5.46753,-2.41576 -5.46753,-5.39577c0,-2.98 2.4479,-5.39577 5.46753,-5.39577c3.01963,0 5.46753,2.41578 5.46753,5.39578c0,2.98 -2.4479,5.39578 -5.46753,5.39578z" stroke-width="0.5"/><path d="M17.64529,161.99286c-3.1141,0 -5.63855,-2.48457 -5.63855,-5.54943c0,-3.06488 2.52447,-5.54943 5.63855,-5.54943c3.1141,0 5.63855,2.48457 5.63855,5.54943c0,3.06488 -2.52447,5.54943 -5.63855,5.54943z" stroke-width="0.5"/><path d="M90.74683,162.28006c-3.01965,0 -5.46753,-2.41576 -5.46753,-5.39577c0,-2.98 2.4479,-5.39577 5.46753,-5.39577c3.01963,0 5.46753,2.41578 5.46753,5.39578c0,2.98 -2.4479,5.39578 -5.46753,5.39578z" stroke-width="0.5"/><path d="M12.04251,156.88269v-10.43218h84.2556v10.43218z" stroke-width="0"/></g></g></g></svg>