<svg version="1.1" xmlns="http://www.w3.org/2000/svg" xmlns:xlink="http://www.w3.org/1999/xlink" width="96.87305" height="194.46854" viewBox="0,0,96.87305,194.46854"><g transform="translate(-5.56347,-34.81382)"><g fill="#999999" stroke="none" stroke-width="0" stroke-miterlimit="10"><g><path d="M5.80521,38.63862c0,-2.11238 1.71242,-3.8248 3.82479,-3.8248c2.11238,0 3.8248,1.71242 3.8248,3.8248c0,2.11238 -1.71242,3.82479 -3.82479,3.82479c-2.11237,0 -3.82479,-1.71242 -3.82479,-3.82479z"/><path d="M9.63001,63.28237v-28.46854h37.16567v28.46854z"/><path d="M5.79479,58.70873v-20.37853h44.82569v20.37853z"/><path d="M42.97089,38.63862c0,-2.11237 1.71242,-3.8248 3.82479,-3.8248c2.11238,0 3.8248,1.71242 3.8248,3.8248c0,2.11238 -1.71242,3.82479 -3.8248,3.82479c-2.11237,0 -3.82479,-1.71242 -3.82479,-3.82479z"/><path d="M42.97089,59.45757c0,-2.11238 1.71242,-3.8248 3.82479,-3.8248c2.11238,0 3.8248,1.71242 3.8248,3.8248c0,2.11238 -1.71242,3.8248 -3.8248,3.8248c-2.11237,0 -3.82479,-1.71242 -3.82479,-3.8248z"/><path d="M5.79479,59.45757c0,-2.11237 1.71242,-3.82479 3.82479,-3.82479c2.11238,0 3.8248,1.71242 3.8248,3.82479c0,2.11238 -1.71242,3.8248 -3.8248,3.8248c-2.11237,0 -3.82479,-1.71241 -3.82479,-3.8248z"/></g><g><path d="M57.62126,38.63862c0,-2.11238 1.71242,-3.8248 3.8248,-3.8248c2.11238,0 3.82479,1.71242 3.82479,3.8248c0,2.11238 -1.71242,3.82479 -3.82479,3.82479c-2.11237,0 -3.8248,-1.71242 -3.8248,-3.82479z"/><path d="M61.44606,63.28237v-28.46854h37.16567v28.46854z"/><path d="M57.61084,58.70873v-20.37853h44.82569v20.37853z"/><path d="M94.78694,38.63862c0,-2.11237 1.71242,-3.8248 3.82479,-3.8248c2.11238,0 3.8248,1.71242 3.8248,3.8248c0,2.11238 -1.71242,3.82479 -3.8248,3.82479c-2.11237,0 -3.82479,-1.71242 -3.82479,-3.82479z"/><path d="M94.78694,59.45757c0,-2.11238 1.71242,-3.8248 3.82479,-3.8248c2.11238,0 3.8248,1.71242 3.8248,3.8248c0,2.11238 -1.71242,3.8248 -3.8248,3.8248c-2.11237,0 -3.82479,-1.71242 -3.82479,-3.8248z"/><path d="M57.61084,59.45757c0,-2.11237 1.71242,-3.82479 3.82479,-3.82479c2.11238,0 3.82479,1.71242 3.82479,3.82479c0,2.11238 -1.71241,3.8248 -3.82479,3.8248c-2.11237,0 -3.82479,-1.71241 -3.82479,-3.8248z"/></g><g><path d="M5.57389,80.97767c0,-2.11238 1.71242,-3.8248 3.8248,-3.8248c2.11238,0 3.82479,1.71242 3.82479,3.8248c0,2.11238 -1.71241,3.82479 -3.82479,3.82479c-2.11237,0 -3.8248,-1.71241 -3.8248,-3.82479z"/><path d="M9.39869,105.62141v-28.46854h37.16568v28.46854z"/><path d="M5.56348,101.04777v-20.37852h44.82568v20.37852z"/><path d="M42.73957,80.97767c0,-2.11237 1.71242,-3.8248 3.8248,-3.8248c2.11238,0 3.82479,1.71242 3.82479,3.8248c0,2.11238 -1.71241,3.82479 -3.82479,3.82479c-2.11237,0 -3.8248,-1.71241 -3.8248,-3.82479z"/><path d="M42.73957,101.79661c0,-2.11238 1.71242,-3.82479 3.8248,-3.82479c2.11238,0 3.82479,1.71241 3.82479,3.82479c0,2.11238 -1.71241,3.82479 -3.82479,3.82479c-2.11237,0 -3.8248,-1.71242 -3.8248,-3.82479z"/><path d="M5.56348,101.79661c0,-2.11237 1.71242,-3.82479 3.82479,-3.82479c2.11238,0 3.8248,1.71242 3.8248,3.82479c0,2.11238 -1.71241,3.82479 -3.82479,3.82479c-2.11237,0 -3.82479,-1.71241 -3.82479,-3.82479z"/></g><g><path d="M57.38994,80.97767c0,-2.11238 1.71242,-3.8248 3.82479,-3.8248c2.11238,0 3.82479,1.71242 3.82479,3.8248c0,2.11238 -1.71242,3.82479 -3.82479,3.82479c-2.11237,0 -3.82479,-1.71241 -3.82479,-3.82479z"/><path d="M61.21473,105.62141v-28.46854h37.16568v28.46854z"/><path d="M57.37952,101.04777v-20.37852h44.82569v20.37852z"/><path d="M94.55561,80.97767c0,-2.11237 1.71242,-3.8248 3.8248,-3.8248c2.11238,0 3.8248,1.71242 3.8248,3.8248c0,2.11238 -1.71242,3.82479 -3.8248,3.82479c-2.11237,0 -3.8248,-1.71241 -3.8248,-3.82479z"/><path d="M94.55561,101.79661c0,-2.11238 1.71242,-3.82479 3.8248,-3.82479c2.11238,0 3.8248,1.71241 3.8248,3.82479c0,2.11238 -1.71242,3.82479 -3.8248,3.82479c-2.11237,0 -3.8248,-1.71242 -3.8248,-3.82479z"/><path d="M57.37952,101.79661c0,-2.11237 1.71243,-3.82479 3.8248,-3.82479c2.11238,0 3.8248,1.71242 3.8248,3.82479c0,2.11238 -1.71241,3.82479 -3.8248,3.82479c-2.11237,0 -3.8248,-1.71241 -3.8248,-3.82479z"/></g><g><path d="M5.57389,120.70463c0,-2.11238 1.71242,-3.82479 3.8248,-3.82479c2.11238,0 3.82479,1.71241 3.82479,3.82479c0,2.11238 -1.71241,3.8248 -3.82479,3.8248c-2.11237,0 -3.8248,-1.71242 -3.8248,-3.8248z"/><path d="M9.39869,145.34838v-28.46854h37.16568v28.46854z"/><path d="M5.56348,140.77474v-20.37853h44.82568v20.37853z"/><path d="M42.73957,120.70463c0,-2.11237 1.71242,-3.82479 3.8248,-3.82479c2.11238,0 3.82479,1.71241 3.82479,3.82479c0,2.11238 -1.71241,3.8248 -3.82479,3.8248c-2.11237,0 -3.8248,-1.71242 -3.8248,-3.8248z"/><path d="M42.73957,141.52358c0,-2.11238 1.71242,-3.8248 3.8248,-3.8248c2.11238,0 3.82479,1.71242 3.82479,3.8248c0,2.11238 -1.71241,3.82479 -3.82479,3.82479c-2.11237,0 -3.8248,-1.71242 -3.8248,-3.82479z"/><path d="M5.56348,141.52358c0,-2.11238 1.71242,-3.8248 3.82479,-3.8248c2.11238,0 3.8248,1.71242 3.8248,3.8248c0,2.11238 -1.71241,3.82479 -3.82479,3.82479c-2.11237,0 -3.82479,-1.71241 -3.82479,-3.82479z"/></g><g><path d="M57.38994,120.70463c0,-2.11238 1.71242,-3.82479 3.82479,-3.82479c2.11238,0 3.82479,1.71241 3.82479,3.82479c0,2.11238 -1.71242,3.8248 -3.82479,3.8248c-2.11237,0 -3.82479,-1.71242 -3.82479,-3.8248z"/><path d="M61.21473,145.34838v-28.46854h37.16568v28.46854z"/><path d="M57.37952,140.77474v-20.37853h44.82569v20.37853z"/><path d="M94.55561,120.70463c0,-2.11237 1.71242,-3.82479 3.8248,-3.82479c2.11238,0 3.8248,1.71241 3.8248,3.82479c0,2.11238 -1.71242,3.8248 -3.8248,3.8248c-2.11237,0 -3.8248,-1.71242 -3.8248,-3.8248z"/><path d="M94.55561,141.52358c0,-2.11238 1.71242,-3.8248 3.8248,-3.8248c2.11238,0 3.8248,1.71242 3.8248,3.8248c0,2.11238 -1.71242,3.82479 -3.8248,3.82479c-2.11237,0 -3.8248,-1.71242 -3.8248,-3.82479z"/><path d="M57.37952,141.52358c0,-2.11238 1.71243,-3.8248 3.8248,-3.8248c2.11238,0 3.8248,1.71242 3.8248,3.8248c0,2.11238 -1.71241,3.82479 -3.8248,3.82479c-2.11237,0 -3.8248,-1.71241 -3.8248,-3.82479z"/></g><g><path d="M5.57389,163.70463c0,-2.11238 1.71242,-3.82479 3.8248,-3.82479c2.11238,0 3.82479,1.71241 3.82479,3.82479c0,2.11238 -1.71241,3.82479 -3.82479,3.82479c-2.11237,0 -3.8248,-1.71242 -3.8248,-3.82479z"/><path d="M9.39869,188.34838v-28.46854h37.16568v28.46854z"/><path d="M5.56348,183.77474v-20.37853h44.82568v20.37853z"/><path d="M42.73957,163.70463c0,-2.11237 1.71242,-3.82479 3.8248,-3.82479c2.11238,0 3.82479,1.71241 3.82479,3.82479c0,2.11237 -1.71241,3.82479 -3.82479,3.82479c-2.11237,0 -3.8248,-1.71242 -3.8248,-3.82479z"/><path d="M42.73957,184.52358c0,-2.11238 1.71242,-3.8248 3.8248,-3.8248c2.11238,0 3.82479,1.71242 3.82479,3.8248c0,2.11238 -1.71241,3.82479 -3.82479,3.82479c-2.11237,0 -3.8248,-1.71242 -3.8248,-3.82479z"/><path d="M5.56348,184.52358c0,-2.11238 1.71242,-3.8248 3.82479,-3.8248c2.11238,0 3.8248,1.71242 3.8248,3.8248c0,2.11238 -1.71241,3.82479 -3.82479,3.82479c-2.11237,0 -3.82479,-1.71241 -3.82479,-3.82479z"/></g><g><path d="M57.38994,163.70463c0,-2.11238 1.71242,-3.82479 3.82479,-3.82479c2.11238,0 3.82479,1.71241 3.82479,3.82479c0,2.11238 -1.71242,3.82479 -3.82479,3.82479c-2.11237,0 -3.82479,-1.71242 -3.82479,-3.82479z"/><path d="M61.21473,188.34838v-28.46854h37.16568v28.46854z"/><path d="M57.37952,183.77474v-20.37853h44.82569v20.37853z"/><path d="M94.55561,163.70463c0,-2.11237 1.71242,-3.82479 3.8248,-3.82479c2.11238,0 3.8248,1.71241 3.8248,3.82479c0,2.11237 -1.71242,3.82479 -3.8248,3.82479c-2.11237,0 -3.8248,-1.71242 -3.8248,-3.82479z"/><path d="M94.55561,184.52358c0,-2.11238 1.71242,-3.8248 3.8248,-3.8248c2.11238,0 3.8248,1.71242 3.8248,3.8248c0,2.11238 -1.71242,3.82479 -3.8248,3.82479c-2.11237,0 -3.8248,-1.71242 -3.8248,-3.82479z"/><path d="M57.37952,184.52358c0,-2.11238 1.71243,-3.8248 3.8248,-3.8248c2.11238,0 3.8248,1.71242 3.8248,3.8248c0,2.11238 -1.71241,3.82479 -3.8248,3.82479c-2.11237,0 -3.8248,-1.71241 -3.8248,-3.82479z"/></g><g><path d="M5.80521,204.63862c0,-2.11238 1.71242,-3.82479 3.82479,-3.82479c2.11238,0 3.8248,1.71241 3.8248,3.82479c0,2.11238 -1.71242,3.82479 -3.82479,3.82479c-2.11237,0 -3.82479,-1.71242 -3.82479,-3.82479z"/><path d="M9.63001,229.28237v-28.46854h37.16567v28.46854z"/><path d="M5.79479,224.70873v-20.37853h44.82569v20.37853z"/><path d="M42.97089,204.63862c0,-2.11237 1.71242,-3.82479 3.82479,-3.82479c2.11238,0 3.8248,1.71241 3.8248,3.82479c0,2.11237 -1.71242,3.82479 -3.8248,3.82479c-2.11237,0 -3.82479,-1.71242 -3.82479,-3.82479z"/><path d="M42.97089,225.45757c0,-2.11238 1.71242,-3.8248 3.82479,-3.8248c2.11238,0 3.8248,1.71242 3.8248,3.8248c0,2.11238 -1.71242,3.82479 -3.8248,3.82479c-2.11237,0 -3.82479,-1.71242 -3.82479,-3.82479z"/><path d="M5.79479,225.45757c0,-2.11238 1.71242,-3.82479 3.82479,-3.82479c2.11238,0 3.8248,1.71242 3.8248,3.82479c0,2.11238 -1.71242,3.82479 -3.8248,3.82479c-2.11237,0 -3.82479,-1.71241 -3.82479,-3.82479z"/></g><g><path d="M57.62126,204.63862c0,-2.11238 1.71242,-3.82479 3.8248,-3.82479c2.11238,0 3.82479,1.71241 3.82479,3.82479c0,2.11238 -1.71242,3.82479 -3.82479,3.82479c-2.11237,0 -3.8248,-1.71242 -3.8248,-3.82479z"/><path d="M61.44606,229.28237v-28.46854h37.16567v28.46854z"/><path d="M57.61084,224.70873v-20.37853h44.82569v20.37853z"/><path d="M94.78694,204.63862c0,-2.11237 1.71242,-3.82479 3.82479,-3.82479c2.11238,0 3.8248,1.71241 3.8248,3.82479c0,2.11237 -1.71242,3.82479 -3.8248,3.82479c-2.11237,0 -3.82479,-1.71242 -3.82479,-3.82479z"/><path d="M94.78694,225.45757c0,-2.11238 1.71242,-3.8248 3.82479,-3.8248c2.11238,0 3.8248,1.71242 3.8248,3.8248c0,2.11238 -1.71242,3.82479 -3.8248,3.82479c-2.11237,0 -3.82479,-1.71242 -3.82479,-3.82479z"/><path d="M57.61084,225.45757c0,-2.11238 1.71242,-3.82479 3.82479,-3.82479c2.11238,0 3.82479,1.71242 3.82479,3.82479c0,2.11238 -1.71241,3.82479 -3.82479,3.82479c-2.11237,0 -3.82479,-1.71241 -3.82479,-3.82479z"/></g></g></g></svg>