<svg version="1.1" xmlns="http://www.w3.org/2000/svg" xmlns:xlink="http://www.w3.org/1999/xlink" width="79.97117" height="91.96684" viewBox="0,0,79.97117,91.96684"><defs><linearGradient x1="129.98558" y1="102.42844" x2="129.98558" y2="50.46051" gradientUnits="userSpaceOnUse" id="color-1"><stop offset="0" stop-color="#414042"/><stop offset="0.52" stop-color="#353333"/></linearGradient><linearGradient x1="129.98558" y1="101.07426" x2="129.98558" y2="72.86577" gradientUnits="userSpaceOnUse" id="color-2"><stop offset="0" stop-color="#bfe7fb"/><stop offset="0.69" stop-color="#4cc9f5"/></linearGradient><linearGradient x1="159.90813" y1="68.46735" x2="163.88803" y2="82.99811" gradientUnits="userSpaceOnUse" id="color-3"><stop offset="0" stop-color="#ecf7fe" stop-opacity="0.1"/><stop offset="1" stop-color="#f27ba5"/></linearGradient><linearGradient x1="97.56261" y1="73.91072" x2="97.56261" y2="81.30539" gradientUnits="userSpaceOnUse" id="color-4"><stop offset="0" stop-color="#ecf7fe" stop-opacity="0.1"/><stop offset="1" stop-color="#f27ba5"/></linearGradient></defs><g transform="translate(-90,-7.5)"><g data-paper-data="{&quot;isPaintingLayer&quot;:true}" fill-rule="nonzero" stroke-linejoin="miter" stroke-miterlimit="10" stroke-dasharray="" stroke-dashoffset="0" style="mix-blend-mode: normal"><path d="M160.27333,99.46684h-60.57549c-5.35597,0 -9.69784,-4.34187 -9.69784,-9.69784v-13.18991h79.97117v13.18991c0,5.35597 -4.34187,9.69784 -9.69784,9.69784z" fill="url(#color-1)" stroke="none" stroke-width="1" stroke-linecap="butt"/><path d="M169.97117,77.34148c0,5.35597 -4.34187,9.69784 -9.69784,9.69784h-60.57549c-5.35597,0 -9.69784,-4.34187 -9.69784,-9.69784v-48.55316c0,-8.89279 8.11174,-21.28832 13.9683,-21.28832c4.05187,0 9.18602,5.33141 11.96102,11.99567h5.38473c1.19424,-3.12154 4.16383,-7.95713 11.19596,-7.95713l-2.17255,6.35771c0,0 3.54006,-2.89762 7.64524,-2.89762l0.76239,4.49705h5.52867c2.82565,-6.3817 7.78919,-11.99567 11.7291,-11.99567c5.85656,0 13.9683,11.14265 13.9683,21.28832z" fill="#414042" stroke="none" stroke-width="1" stroke-linecap="butt"/><path d="M161.2703,87.04465c0,0 -5.85389,12.42219 -13.18458,12.42219h-36.20028c-7.33069,0 -13.18725,-12.42219 -13.18725,-12.42219z" fill="url(#color-2)" stroke="none" stroke-width="1" stroke-linecap="butt"/><path d="M151.90301,69.56029c9.66052,0.75973 16.88191,2.08192 18.06815,3.9639v3.81729c0,5.35597 -4.34187,9.69784 -9.69784,9.69784h-60.57549c-5.35597,0 -9.69784,-4.34187 -9.69784,-9.69784v-3.81729c1.1889,-1.88199 8.40764,-3.20418 18.06282,-3.9719c2.64039,-0.20891 5.08053,-1.48839 6.75397,-3.54142c1.67343,-2.05303 2.43461,-4.70104 2.10684,-7.32932c-1.65274,-13.18191 -1.62075,-32.66556 13.06196,-32.66556c14.68271,0 14.72003,19.47564 13.06196,32.66556c-0.32936,2.62828 0.43039,5.27693 2.10285,7.331c1.67246,2.05407 4.11214,3.33489 6.75263,3.54508z" fill="#e4f5fd" stroke="none" stroke-width="1" stroke-linecap="butt"/><path d="M157.71958,77.60806c0,-2.04198 2.09933,-3.69733 4.68898,-3.69733c2.58965,0 4.68898,1.65535 4.68898,3.69733c0,2.04198 -2.09933,3.69733 -4.68898,3.69733c-2.58965,0 -4.68898,-1.65535 -4.68898,-3.69733z" fill="url(#color-3)" stroke="none" stroke-width="1" stroke-linecap="butt"/><path d="M92.87363,77.60806c0,-2.04198 2.09933,-3.69733 4.68898,-3.69733c2.58965,0 4.68898,1.65535 4.68898,3.69733c0,2.04198 -2.09933,3.69733 -4.68898,3.69733c-2.58965,0 -4.68898,-1.65535 -4.68898,-3.69733z" fill="url(#color-4)" stroke="none" stroke-width="1" stroke-linecap="butt"/><g fill="#231f20" stroke="none" stroke-width="1" stroke-linecap="butt"><path d="M144.21512,60.53155c0,-6.49989 5.2692,-11.76909 11.76909,-11.76909c6.49989,0 11.76909,5.2692 11.76909,11.76909c0,6.49989 -5.2692,11.76909 -11.76909,11.76909c-6.49989,0 -11.76909,-5.2692 -11.76909,-11.76909z"/><path d="M92.21787,60.53155c0,-6.49989 5.2692,-11.76909 11.76909,-11.76909c6.49989,0 11.76909,5.2692 11.76909,11.76909c0,6.49989 -5.2692,11.76909 -11.76909,11.76909c-6.49989,0 -11.76909,-5.2692 -11.76909,-11.76909z"/></g><g fill="#ffffff" stroke="none" stroke-width="1" stroke-linecap="butt"><path d="M144.21512,63.7997c0,-6.49989 5.2692,-11.76909 11.76909,-11.76909c6.49989,0 11.76909,5.2692 11.76909,11.76909c0,6.49989 -5.2692,11.76909 -11.76909,11.76909c-6.49989,0 -11.76909,-5.2692 -11.76909,-11.76909z"/><path d="M92.21787,63.7997c0,-6.49989 5.2692,-11.76909 11.76909,-11.76909c6.49989,0 11.76909,5.2692 11.76909,11.76909c0,6.49989 -5.2692,11.76909 -11.76909,11.76909c-6.49989,0 -11.76909,-5.2692 -11.76909,-11.76909z"/></g><path d="M114.24193,62.10431c0.65523,3.07147 -0.69676,6.22241 -3.37421,7.86392c-2.67744,1.64151 -6.09884,1.41707 -8.5389,-0.56014c-2.44006,-1.97721 -3.36883,-5.27777 -2.31798,-8.23732c1.05086,-2.95955 3.85311,-4.93533 6.99369,-4.93101c0.34874,0.0006 0.69702,0.02554 1.04229,0.07464c-1.28157,1.74304 -1.05511,4.1695 0.52687,5.64528c1.58198,1.47579 4.0183,1.53337 5.66823,0.13397zM105.65835,66.71332c0,-0.97167 -0.78769,-1.75937 -1.75937,-1.75937c-0.97167,0 -1.75937,0.78769 -1.75937,1.75937c0,0.97167 0.78769,1.75937 1.75937,1.75937c0.97167,0 1.75937,-0.78769 1.75937,-1.75937zM156.6382,70.04898c-2.8088,1.60124 -6.33232,1.19128 -8.69846,-1.01206c-2.36614,-2.20335 -3.0258,-5.68875 -1.6285,-8.60438c1.3973,-2.91563 4.5273,-4.58486 7.72699,-4.1208c-1.15754,1.73917 -0.88493,4.06081 0.64399,5.48453c1.52892,1.42373 3.86407,1.53043 5.51646,0.25206c0.69058,3.15855 -0.75168,6.3994 -3.56048,8.00065zM149.79444,68.46735c0.46846,0.00284 0.9187,-0.18127 1.25096,-0.51152c0.33225,-0.33025 0.51908,-0.77938 0.51907,-1.24784c0,-0.97132 -0.78715,-1.75887 -1.75848,-1.75936c-0.97132,-0.00049 -1.75927,0.78627 -1.76025,1.75759c-0.00098,0.97132 0.78538,1.75967 1.7567,1.76114z" fill="#414042" stroke="none" stroke-width="1" stroke-linecap="butt"/><path d="M116.27319,78.17585c13.71239,4.44373 13.71239,-8.8768 13.71239,-8.8768c0,0 0,13.32853 13.71239,8.8768" fill="none" stroke="#414042" stroke-width="3" stroke-linecap="round"/><path d="M122.4363,64.27953c0,-3.19885 15.09322,-2.80965 15.09322,0c0,2.80965 -4.38242,6.21109 -7.54395,6.21109c-3.16153,0 -7.54395,-3.01225 -7.54395,-6.21109z" fill="#414042" stroke="none" stroke-width="1" stroke-linecap="butt"/><g fill="#e4f5fd" stroke="none" stroke-width="1" stroke-linecap="butt"><path d="M103.94001,49.68865c-4.12951,-0.99369 -6.93629,-4.04685 -6.26912,-6.81941c0.66717,-2.77257 4.55564,-4.21463 8.68515,-3.22094c4.12951,0.99369 6.93629,4.04685 6.26912,6.81941c-0.66717,2.77257 -4.55564,4.21463 -8.68515,3.22094z"/><path d="M147.34354,46.4984c-0.66717,-2.77257 2.13961,-5.82572 6.26912,-6.81941c4.12951,-0.99369 8.01798,0.44837 8.68515,3.22094c0.66717,2.77257 -2.13961,5.82572 -6.26912,6.81941c-4.12951,0.99369 -8.01798,-0.44837 -8.68515,-3.22094z"/></g><path d="M166.15654,27.61275c0,0.06131 -0.23458,0.46383 -1.33285,0.92767c-1.09827,0.46383 -2.64971,0.81837 -4.51571,1.03963c-4.27758,-3.05566 -9.02299,-5.3964 -14.05093,-6.93083c0.91774,-2.7878 2.29832,-5.40118 4.08386,-7.73055c1.91931,-2.46844 3.99856,-3.99856 5.43004,-3.99856c3.72132,0 10.38825,8.4023 10.38559,16.69265z" fill="#ecf7fe" stroke="none" stroke-width="1" stroke-linecap="butt"/><path d="M148.71216,23.47291c0.75978,-1.68828 1.71341,-3.28242 2.84164,-4.75029c1.92997,-2.47911 3.49741,-3.27882 3.95591,-3.27882c0.66643,0 2.77233,1.06628 5.01153,4.35843c1.88465,2.775 3.12154,6.05115 3.43076,9.02341c-1.19,0.35406 -2.40968,0.59942 -3.64402,0.73307c-3.569,-2.5519 -7.47165,-4.60144 -11.59848,-6.09114z" fill="#dd7399" stroke="none" stroke-width="1" stroke-linecap="butt"/><path d="M93.81462,27.59409c0,-8.26902 6.66426,-16.67399 10.39625,-16.67932c1.43148,0 3.51073,1.53545 5.43004,3.99856c1.78554,2.32936 3.16613,4.94274 4.08386,7.73055c-5.03176,1.52899 -9.78172,3.86526 -14.06426,6.91751c-1.86599,-0.22125 -3.41477,-0.57579 -4.51571,-1.03963c-1.10094,-0.46383 -1.33285,-0.86635 -1.33285,-0.92767z" fill="#ecf7fe" stroke="none" stroke-width="1" stroke-linecap="butt"/><path d="M111.26167,23.46758c-4.12684,1.4897 -8.02948,3.53923 -11.59848,6.09114c-1.23434,-0.13365 -2.45402,-0.37901 -3.64402,-0.73307c0.30922,-2.97226 1.54611,-6.24841 3.43076,-9.02341c2.23919,-3.29215 4.3451,-4.35843 5.01153,-4.35843c0.4585,0 2.02594,0.79971 3.95591,3.27882c1.12824,1.46787 2.08186,3.06201 2.84164,4.75029z" fill="#dd7399" stroke="none" stroke-width="1" stroke-linecap="butt"/></g></g></svg>