<svg version="1.1" xmlns="http://www.w3.org/2000/svg" xmlns:xlink="http://www.w3.org/1999/xlink" width="166.56606" height="64.79889" viewBox="0,0,166.56606,64.79889"><g transform="translate(-12.48148,-17.16523)"><g data-paper-data="{&quot;isPaintingLayer&quot;:true}" fill-rule="nonzero" stroke="none" stroke-linecap="butt" stroke-linejoin="miter" stroke-miterlimit="10" stroke-dasharray="" stroke-dashoffset="0" style="mix-blend-mode: normal"><g fill="#353535"><path d="M134.20379,81.96412v-6.26157h41.89606v6.26157z" stroke-width="0"/><path d="M134.25067,81.8547c-1.77553,0 -3.21487,-1.37929 -3.21487,-3.08073c0,-1.70144 1.43935,-3.08073 3.21487,-3.08073c1.77553,0 3.21487,1.37929 3.21487,3.08073c0,1.70144 -1.43935,3.08073 -3.21487,3.08073z" stroke-width="0.5"/><path d="M175.93018,81.85179c-1.72168,0 -3.11737,-1.37737 -3.11737,-3.07645c0,-1.69907 1.39569,-3.07645 3.11737,-3.07645c1.72167,0 3.11736,1.37738 3.11736,3.07645c0,1.69907 -1.39569,3.07645 -3.11736,3.07645z" stroke-width="0.5"/></g><g fill="#1566b2"><path d="M134.16733,74.86589c-1.77553,0 -3.21487,-1.4166 -3.21487,-3.16406c0,-1.74747 1.43935,-3.16406 3.21487,-3.16406c1.77553,0 3.21488,1.4166 3.21488,3.16406c0,1.74747 -1.43935,3.16406 -3.21488,3.16406z" stroke-width="0.5"/><path d="M134.12045,80.63079v-12.0949h41.89606v12.0949z" stroke-width="0"/><path d="M175.84684,74.73711c-1.72168,0 -3.11737,-1.37737 -3.11737,-3.07645c0,-1.69907 1.39569,-3.07645 3.11737,-3.07645c1.72167,0 3.11736,1.37738 3.11736,3.07645c0,1.69907 -1.39569,3.07645 -3.11736,3.07645z" stroke-width="0.5"/><path d="M134.16733,80.52137c-1.77553,0 -3.21487,-1.4166 -3.21487,-3.16406c0,-1.74747 1.43935,-3.16406 3.21487,-3.16406c1.77553,0 3.21488,1.4166 3.21488,3.16406c0,1.74747 -1.43935,3.16406 -3.21488,3.16406z" stroke-width="0.5"/><path d="M175.84684,80.68512c-1.72168,0 -3.11737,-1.37737 -3.11737,-3.07644c0,-1.69907 1.39569,-3.07645 3.11737,-3.07645c1.72167,0 3.11736,1.37738 3.11736,3.07645c0,1.69907 -1.39569,3.07644 -3.11736,3.07644z" stroke-width="0.5"/><path d="M130.97286,77.60776v-5.948h48.03909v5.948z" stroke-width="0"/></g><g fill="#1e92ff"><path d="M134.16733,72.36589c-1.77553,0 -3.21487,-1.4166 -3.21487,-3.16406c0,-1.74747 1.43935,-3.16406 3.21487,-3.16406c1.77553,0 3.21488,1.4166 3.21488,3.16406c0,1.74747 -1.43935,3.16406 -3.21488,3.16406z" stroke-width="0.5"/><path d="M134.12045,78.13079v-12.0949h41.89606v12.0949z" stroke-width="0"/><path d="M175.84684,72.23711c-1.72168,0 -3.11737,-1.37737 -3.11737,-3.07645c0,-1.69907 1.39569,-3.07645 3.11737,-3.07645c1.72167,0 3.11736,1.37738 3.11736,3.07645c0,1.69907 -1.39569,3.07645 -3.11736,3.07645z" stroke-width="0.5"/><path d="M134.16733,78.02137c-1.77553,0 -3.21487,-1.4166 -3.21487,-3.16406c0,-1.74747 1.43935,-3.16406 3.21487,-3.16406c1.77553,0 3.21488,1.4166 3.21488,3.16406c0,1.74747 -1.43935,3.16406 -3.21488,3.16406z" stroke-width="0.5"/><path d="M175.84684,78.18512c-1.72168,0 -3.11737,-1.37737 -3.11737,-3.07644c0,-1.69907 1.39569,-3.07645 3.11737,-3.07645c1.72167,0 3.11736,1.37738 3.11736,3.07645c0,1.69907 -1.39569,3.07644 -3.11736,3.07644z" stroke-width="0.5"/><path d="M130.97286,75.10776v-5.948h48.03909v5.948z" stroke-width="0"/></g><g data-paper-data="{&quot;index&quot;:null}" fill="#414042"><path d="M15.69635,23.49522c-1.77553,0 -3.21487,-1.4166 -3.21487,-3.16406c0,-1.74747 1.43935,-3.16406 3.21487,-3.16406c1.77553,0 3.21487,1.4166 3.21487,3.16406c0,1.74747 -1.43935,3.16406 -3.21487,3.16406z" stroke-width="0.5"/><path d="M15.64947,62.76013v-45.5949h41.89606v45.5949z" stroke-width="0"/><path d="M57.37586,23.36646c-1.72168,0 -3.11736,-1.37737 -3.11736,-3.07645c0,-1.69907 1.39569,-3.07645 3.11736,-3.07645c1.72167,0 3.11736,1.37738 3.11736,3.07645c0,1.69907 -1.39569,3.07645 -3.11736,3.07645z" stroke-width="0.5"/><path d="M15.70951,62.76913c-1.77553,0 -3.21487,-1.4166 -3.21487,-3.16406c0,-1.74747 1.43935,-3.16406 3.21487,-3.16406c1.77553,0 3.21487,1.4166 3.21487,3.16406c0,1.74747 -1.43935,3.16406 -3.21487,3.16406z" stroke-width="0.5"/><path d="M57.37586,62.81446c-1.72168,0 -3.11736,-1.37737 -3.11736,-3.07645c0,-1.69907 1.39569,-3.07645 3.11736,-3.07645c1.72167,0 3.11736,1.37738 3.11736,3.07645c0,1.69907 -1.39569,3.07645 -3.11736,3.07645z" stroke-width="0.5"/><path d="M12.50188,59.7371v-39.548h48.03909v39.548z" stroke-width="0"/></g></g></g></svg>