<svg version="1.1" xmlns="http://www.w3.org/2000/svg" xmlns:xlink="http://www.w3.org/1999/xlink" width="84.20763" height="27.88807" viewBox="0,0,84.20763,27.88807"><g transform="translate(-11.70189,-174.20871)"><g stroke="none" stroke-miterlimit="10"><g fill="#353535"><path d="M17.39451,202.09678v-10.96312h73.35402v10.96312z" stroke-width="0"/><path d="M17.47658,201.9052c-3.1087,0 -5.62877,-2.41494 -5.62877,-5.39392c0,-2.97898 2.52009,-5.39391 5.62877,-5.39391c3.1087,0 5.62878,2.41494 5.62878,5.39391c0,2.97898 -2.52009,5.39392 -5.62878,5.39392z" stroke-width="0.5"/><path d="M90.45147,201.90012c-3.01442,0 -5.45807,-2.41158 -5.45807,-5.38642c0,-2.97483 2.44366,-5.38642 5.45807,-5.38642c3.0144,0 5.45805,2.4116 5.45805,5.38642c0,2.97483 -2.44365,5.38643 -5.45805,5.38643z" stroke-width="0.5"/></g><g fill="#1566b2"><path d="M17.33066,189.66876c-3.1087,0 -5.62877,-2.48026 -5.62877,-5.53982c0,-3.05957 2.5201,-5.53982 5.62877,-5.53982c3.1087,0 5.6288,2.48026 5.6288,5.53982c0,3.05957 -2.5201,5.53982 -5.6288,5.53982z" stroke-width="0.5"/><path d="M17.2486,199.76229v-21.17644h73.35402v21.17644z" stroke-width="0"/><path d="M90.30555,189.44332c-3.01442,0 -5.45807,-2.41157 -5.45807,-5.38642c0,-2.97483 2.44366,-5.38643 5.45807,-5.38643c3.01439,0 5.45805,2.4116 5.45805,5.38643c0,2.97483 -2.44366,5.38642 -5.45805,5.38642z" stroke-width="0.5"/><path d="M17.33066,199.57071c-3.1087,0 -5.62877,-2.48026 -5.62877,-5.53982c0,-3.05957 2.5201,-5.53982 5.62877,-5.53982c3.1087,0 5.6288,2.48026 5.6288,5.53982c0,3.05957 -2.5201,5.53982 -5.6288,5.53982z" stroke-width="0.5"/><path d="M90.30555,199.85743c-3.01442,0 -5.45807,-2.41158 -5.45807,-5.38641c0,-2.97483 2.44366,-5.38643 5.45807,-5.38643c3.01439,0 5.45805,2.4116 5.45805,5.38643c0,2.97483 -2.44366,5.38641 -5.45805,5.38641z" stroke-width="0.5"/><path d="M11.73762,194.46941v-10.4141h84.10959v10.4141z" stroke-width="0"/></g><g fill="#1e92ff"><path d="M17.33066,185.29162c-3.1087,0 -5.62877,-2.48026 -5.62877,-5.53982c0,-3.05957 2.5201,-5.53982 5.62877,-5.53982c3.1087,0 5.6288,2.48026 5.6288,5.53982c0,3.05957 -2.5201,5.53982 -5.6288,5.53982z" stroke-width="0.5"/><path d="M17.2486,195.38515v-21.17644h73.35402v21.17644z" stroke-width="0"/><path d="M90.30555,185.06618c-3.01442,0 -5.45807,-2.41157 -5.45807,-5.38643c0,-2.97483 2.44366,-5.38642 5.45807,-5.38642c3.01439,0 5.45805,2.4116 5.45805,5.38642c0,2.97483 -2.44366,5.38643 -5.45805,5.38643z" stroke-width="0.5"/><path d="M17.33066,195.19357c-3.1087,0 -5.62877,-2.48026 -5.62877,-5.53982c0,-3.05957 2.5201,-5.53982 5.62877,-5.53982c3.1087,0 5.6288,2.48026 5.6288,5.53982c0,3.05957 -2.5201,5.53982 -5.6288,5.53982z" stroke-width="0.5"/><path d="M90.30555,195.48029c-3.01442,0 -5.45807,-2.41158 -5.45807,-5.38641c0,-2.97483 2.44366,-5.38642 5.45807,-5.38642c3.01439,0 5.45805,2.4116 5.45805,5.38642c0,2.97483 -2.44366,5.38641 -5.45805,5.38641z" stroke-width="0.5"/><path d="M11.73762,190.09227v-10.4141h84.10959v10.4141z" stroke-width="0"/></g></g></g></svg>