<svg version="1.1" xmlns="http://www.w3.org/2000/svg" xmlns:xlink="http://www.w3.org/1999/xlink" width="77.22184" height="25.57452" viewBox="0,0,77.22184,25.57452"><g transform="translate(-15.38908,-23.99604)"><g stroke="none" stroke-miterlimit="10"><g fill="#353535"><path d="M20.60944,49.57056v-10.05362h67.26865v10.05362z" stroke-width="0"/><path d="M20.68471,49.39487c-2.8508,0 -5.16182,-2.2146 -5.16182,-4.94645c0,-2.73185 2.31103,-4.94645 5.16182,-4.94645c2.8508,0 5.16182,2.2146 5.16182,4.94645c0,2.73185 -2.31103,4.94645 -5.16182,4.94645z" stroke-width="0.5"/><path d="M87.60566,49.39021c-2.76435,0 -5.00527,-2.21152 -5.00527,-4.93957c0,-2.72804 2.24093,-4.93957 5.00527,-4.93957c2.76433,0 5.00526,2.21153 5.00526,4.93957c0,2.72804 -2.24093,4.93957 -5.00526,4.93957z" stroke-width="0.5"/></g><g fill="#1566b2"><path d="M20.5509,38.17355c-2.8508,0 -5.16182,-2.27451 -5.16182,-5.08024c0,-2.80575 2.31103,-5.08024 5.16182,-5.08024c2.8508,0 5.16184,2.27451 5.16184,5.08024c0,2.80575 -2.31103,5.08024 -5.16184,5.08024z" stroke-width="0.5"/><path d="M20.47563,47.42973v-19.41967h67.26865v19.41967z" stroke-width="0"/><path d="M87.47185,37.96681c-2.76435,0 -5.00527,-2.21152 -5.00527,-4.93957c0,-2.72804 2.24093,-4.93957 5.00527,-4.93957c2.76433,0 5.00526,2.21153 5.00526,4.93957c0,2.72804 -2.24093,4.93957 -5.00526,4.93957z" stroke-width="0.5"/><path d="M20.5509,47.25405c-2.8508,0 -5.16182,-2.27451 -5.16182,-5.08024c0,-2.80575 2.31103,-5.08024 5.16182,-5.08024c2.8508,0 5.16184,2.27451 5.16184,5.08024c0,2.80575 -2.31103,5.08024 -5.16184,5.08024z" stroke-width="0.5"/><path d="M87.47185,47.51698c-2.76435,0 -5.00527,-2.21152 -5.00527,-4.93956c0,-2.72804 2.24093,-4.93957 5.00527,-4.93957c2.76433,0 5.00526,2.21153 5.00526,4.93957c0,2.72804 -2.24093,4.93956 -5.00526,4.93956z" stroke-width="0.5"/><path d="M15.42183,42.57595v-9.55016h77.13195v9.55016z" stroke-width="0"/></g><g fill="#251d96"><path d="M20.5509,38.37614c-2.8508,0 -5.16182,-2.27451 -5.16182,-5.08024c0,-2.80575 2.31103,-5.08024 5.16182,-5.08024c2.8508,0 5.16184,2.27451 5.16184,5.08024c0,2.80575 -2.31103,5.08024 -5.16184,5.08024z" stroke-width="0.5"/><path d="M20.47563,47.63232v-19.41967h67.26865v19.41967z" stroke-width="0"/><path d="M87.47185,38.1694c-2.76435,0 -5.00527,-2.21152 -5.00527,-4.93957c0,-2.72804 2.24093,-4.93957 5.00527,-4.93957c2.76433,0 5.00526,2.21153 5.00526,4.93957c0,2.72804 -2.24093,4.93957 -5.00526,4.93957z" stroke-width="0.5"/><path d="M20.5509,47.45664c-2.8508,0 -5.16182,-2.27451 -5.16182,-5.08024c0,-2.80575 2.31103,-5.08024 5.16182,-5.08024c2.8508,0 5.16184,2.27451 5.16184,5.08024c0,2.80575 -2.31103,5.08024 -5.16184,5.08024z" stroke-width="0.5"/><path d="M87.47185,47.71957c-2.76435,0 -5.00527,-2.21152 -5.00527,-4.93956c0,-2.72804 2.24093,-4.93957 5.00527,-4.93957c2.76433,0 5.00526,2.21153 5.00526,4.93957c0,2.72804 -2.24093,4.93956 -5.00526,4.93956z" stroke-width="0.5"/><path d="M15.42183,42.77854v-9.55016h77.13195v9.55016z" stroke-width="0"/></g><g fill="#3126cc"><path d="M20.5509,34.15953c-2.8508,0 -5.16182,-2.27451 -5.16182,-5.08024c0,-2.80575 2.31103,-5.08024 5.16182,-5.08024c2.8508,0 5.16184,2.27451 5.16184,5.08024c0,2.80575 -2.31103,5.08024 -5.16184,5.08024z" stroke-width="0.5"/><path d="M20.47563,43.41571v-19.41967h67.26865v19.41967z" stroke-width="0"/><path d="M87.47185,33.95279c-2.76435,0 -5.00527,-2.21152 -5.00527,-4.93957c0,-2.72804 2.24093,-4.93957 5.00527,-4.93957c2.76433,0 5.00526,2.21153 5.00526,4.93957c0,2.72804 -2.24093,4.93957 -5.00526,4.93957z" stroke-width="0.5"/><path d="M20.5509,43.24003c-2.8508,0 -5.16182,-2.27451 -5.16182,-5.08024c0,-2.80575 2.31103,-5.08024 5.16182,-5.08024c2.8508,0 5.16184,2.27451 5.16184,5.08024c0,2.80575 -2.31103,5.08024 -5.16184,5.08024z" stroke-width="0.5"/><path d="M87.47185,43.50296c-2.76435,0 -5.00527,-2.21152 -5.00527,-4.93956c0,-2.72804 2.24093,-4.93957 5.00527,-4.93957c2.76433,0 5.00526,2.21153 5.00526,4.93957c0,2.72804 -2.24093,4.93956 -5.00526,4.93956z" stroke-width="0.5"/><path d="M15.42183,38.56193v-9.55016h77.13195v9.55016z" stroke-width="0"/></g><text transform="translate(23.76862,37.35527) scale(0.27981,0.27981)" font-size="40" xml:space="preserve" fill="#ffffff" stroke-width="1" font-family="Sans Serif" font-weight="normal" text-anchor="start"><tspan x="0" dy="0">Start Game</tspan></text></g></g></svg>