<svg version="1.1" xmlns="http://www.w3.org/2000/svg" xmlns:xlink="http://www.w3.org/1999/xlink" width="92.72439" height="32.89834" viewBox="0,0,92.72439,32.89834"><g transform="translate(-7.6378,-85.44606)"><g fill="#5100d1" stroke="none" stroke-miterlimit="10"><path d="M12.41789,94.86021c-2.63997,0 -4.78009,-2.1063 -4.78009,-4.70454c0,-2.59826 2.14012,-4.70454 4.78009,-4.70454c2.63997,0 4.7801,2.1063 4.7801,4.70454c0,2.59826 -2.14012,4.70454 -4.7801,4.70454z" stroke-width="0.5"/><path d="M12.4179,118.25406v-32.80799h83.1642v32.80799z" stroke-width="0"/><path d="M7.6378,113.42442v-23.26874h92.72439v23.26874z" stroke-width="0"/><path d="M12.41789,118.12895c-2.63997,0 -4.78009,-2.1063 -4.78009,-4.70454c0,-2.59826 2.14012,-4.70454 4.78009,-4.70454c2.63998,0 4.7801,2.1063 4.7801,4.70454c0,2.59826 -2.14012,4.70454 -4.7801,4.70454z" stroke-width="0.5"/><path d="M95.58209,94.86021c-2.63998,0 -4.78009,-2.1063 -4.78009,-4.70454c0,-2.59826 2.14012,-4.70454 4.78009,-4.70454c2.63998,0 4.7801,2.1063 4.7801,4.70454c0,2.59826 -2.14012,4.70454 -4.7801,4.70454z" stroke-width="0.5"/><path d="M95.58209,118.3444c-2.63998,0 -4.78009,-2.1063 -4.78009,-4.70454c0,-2.59826 2.14012,-4.70454 4.78009,-4.70454c2.63998,0 4.7801,2.1063 4.7801,4.70454c0,2.59826 -2.14012,4.70454 -4.7801,4.70454z" stroke-width="0.5"/></g></g></svg>