<svg version="1.1" xmlns="http://www.w3.org/2000/svg" xmlns:xlink="http://www.w3.org/1999/xlink" width="76.68888" height="77.70585" viewBox="0,0,76.68888,77.70585"><defs><linearGradient x1="53.99105" y1="97.38058" x2="53.99105" y2="47.28218" gradientUnits="userSpaceOnUse" id="color-1"><stop offset="0" stop-color="#414042"/><stop offset="0.52" stop-color="#353333"/></linearGradient><linearGradient x1="82.67852" y1="66.90779" x2="86.49414" y2="80.91583" gradientUnits="userSpaceOnUse" id="color-2"><stop offset="0" stop-color="#ecf7fe" stop-opacity="0.1"/><stop offset="1" stop-color="#f27ba5"/></linearGradient><linearGradient x1="22.90637" y1="72.15535" x2="22.90637" y2="79.28399" gradientUnits="userSpaceOnUse" id="color-3"><stop offset="0" stop-color="#ecf7fe" stop-opacity="0.1"/><stop offset="1" stop-color="#f27ba5"/></linearGradient></defs><g transform="translate(-15.65556,-16.81968)"><g stroke-miterlimit="10"><g><path d="M83.02865,94.52553h-58.07517c-5.1349,0 -9.29755,-4.18567 -9.29755,-9.34896v-12.71541h76.67027v12.71541c0,5.16329 -4.16265,9.34896 -9.29755,9.34896z" fill="url(#color-1)" stroke="none" stroke-width="1" stroke-linecap="butt"/><path d="M92.32619,55.97841v17.21771c0,5.16329 -4.16265,9.34896 -9.29755,9.34896h-58.07517c-5.1349,0 -9.29755,-4.18567 -9.29755,-9.34896v-17.21771c0,-21.28828 14.67468,-35.04704 38.33513,-35.04704c23.66044,0 38.33514,13.75876 38.33514,35.04704z" fill="#58595b" stroke="none" stroke-width="1" stroke-linecap="butt"/><path d="M49.00749,76.47777l4.98357,-8.27993l4.98357,8.27993" fill="none" stroke="#414042" stroke-width="4" stroke-linecap="round"/><path d="M60.5898,64.20179c0,2.46959 -3.83351,5.45828 -6.59875,5.45828c-2.76525,0 -6.59875,-2.63149 -6.59875,-5.45828c0,-2.81137 13.1975,-2.46959 13.1975,0z" fill="#414042" stroke="none" stroke-width="1" stroke-linecap="butt"/><path d="M80.5803,75.71967c0,-1.96852 2.01267,-3.56432 4.49544,-3.56432c2.48276,0 4.49543,1.5958 4.49543,3.56432c0,1.96852 -2.01267,3.56432 -4.49543,3.56432c-2.48276,0 -4.49544,-1.59581 -4.49544,-3.56432z" fill="url(#color-2)" stroke="none" stroke-width="1" stroke-linecap="butt"/><path d="M18.41093,75.71967c0,-1.96852 2.01267,-3.56432 4.49544,-3.56432c2.48276,0 4.49543,1.5958 4.49543,3.56432c0,1.96852 -2.01267,3.56432 -4.49543,3.56432c-2.48276,0 -4.49544,-1.59581 -4.49544,-3.56432z" fill="url(#color-3)" stroke="none" stroke-width="1" stroke-linecap="butt"/><g fill="#414042" stroke="none" stroke-width="1" stroke-linecap="butt"><path d="M67.63325,61.46751c0,-6.26606 5.05171,-11.3457 11.28331,-11.3457c6.2316,0 11.28331,5.07965 11.28331,11.3457c0,6.26606 -5.05171,11.3457 -11.28331,11.3457c-6.2316,0 -11.28331,-5.07965 -11.28331,-11.3457z"/><path d="M17.78224,61.46751c0,-6.26606 5.05171,-11.3457 11.28331,-11.3457c6.2316,0 11.28331,5.07965 11.28331,11.3457c0,6.26606 -5.05171,11.3457 -11.28331,11.3457c-6.2316,0 -11.28331,-5.07965 -11.28331,-11.3457z"/></g><g fill="#ffffff" stroke="none" stroke-width="1" stroke-linecap="butt"><path d="M67.63325,64.6181c0,-6.26606 5.05171,-11.3457 11.28331,-11.3457c6.2316,0 11.28331,5.07965 11.28331,11.3457c0,6.26606 -5.05171,11.3457 -11.28331,11.3457c-6.2316,0 -11.28331,-5.07965 -11.28331,-11.3457z"/><path d="M17.78224,64.6181c0,-6.26606 5.05171,-11.3457 11.28331,-11.3457c6.2316,0 11.28331,5.07965 11.28331,11.3457c0,6.26606 -5.05171,11.3457 -11.28331,11.3457c-6.2316,0 -11.28331,-5.07965 -11.28331,-11.3457z"/></g><path d="M34.46825,62.68818c0.60936,0.00163 1.21302,-0.11802 1.77619,-0.35206c0.03322,0.35977 0.03322,0.74524 0.03322,1.13071c0,4.40722 -1.53341,8.00496 -5.52792,8.00496c-3.99452,0 -5.52793,-3.58488 -5.52793,-8.00496c0,-4.37895 1.43885,-7.93299 5.41037,-8.00238c-0.94571,1.42414 -1.0357,3.25593 -0.23415,4.76686c0.80154,1.51092 2.36463,2.45603 4.06767,2.45945zM28.85087,68.73493c1.05337,-0.00283 1.90539,-0.86303 1.90398,-1.92221c0,-1.0616 -0.85588,-1.92221 -1.91165,-1.92221c-1.05577,0 -1.91165,0.86061 -1.91165,1.92221c0,1.0616 0.85588,1.92221 1.91165,1.92221zM82.73219,62.43634c0.02045,0.34264 0.03067,0.68529 0.03067,1.02793c0,4.40722 -1.53341,8.00495 -5.52793,8.00495c-3.99452,0 -5.52792,-3.58231 -5.52792,-8.00495c0,-4.42264 1.46441,-8.00496 5.52792,-8.00496h0.14568c-0.94855,1.42431 -1.04012,3.25809 -0.23822,4.77077c0.8019,1.51268 2.36698,2.45851 4.07172,2.46066c0.51667,0.00186 1.02993,-0.08416 1.51808,-0.25441zM75.59929,68.73493c1.05502,-0.00213 1.90887,-0.86328 1.90781,-1.92414c-0.00106,-1.06086 -0.85662,-1.9203 -1.91164,-1.9203c-1.05503,0 -1.9106,0.85944 -1.91164,1.9203c-0.00106,1.06086 0.85279,1.92202 1.90781,1.92414z" fill="#414042" stroke="none" stroke-width="1" stroke-linecap="butt"/><path d="M62.68035,35.41995c6.64476,-12.81049 26.68125,-18.60027 26.68125,-18.60027h-0.02045c0,0 6.71632,19.83121 0.06134,32.63655c0,0 -4.78423,0.75296 -14.69513,-4.4509c-9.91091,-5.20386 -12.02701,-9.58538 -12.02701,-9.58538zM45.31709,35.41995c-6.6601,-12.81049 -26.6787,-18.60027 -26.6787,-18.60027h0.02045c0,0 -6.71631,19.83121 -0.06133,32.63655c0,0 4.78423,0.75296 14.69513,-4.4509c9.91091,-5.20386 12.02701,-9.58538 12.02701,-9.58538z" fill="#58595b" stroke="none" stroke-width="1" stroke-linecap="butt"/><path d="M36.35689,31.87361c-4.12486,-7.94071 -16.53522,-11.53073 -16.53522,-11.53073h0.01278c0,0 -4.15298,12.28624 -0.03067,20.21667c0,0 2.96458,0.4677 9.10587,-2.75998c6.14129,-3.22768 7.44724,-5.92597 7.44724,-5.92597zM71.62521,31.87361c4.12486,-7.94071 16.53522,-11.52816 16.53522,-11.52816h-0.01278c0,0 4.16575,12.29397 0.03834,20.23467c0,0 -2.96458,0.4677 -9.10587,-2.75998c-6.14129,-3.22768 -7.4549,-5.94653 -7.4549,-5.94653z" fill="#f6a9cb" stroke="none" stroke-width="1" stroke-linecap="butt"/><path d="M41.01588,33.50801c0,-11.64637 13.34829,-15.30577 13.34829,-15.30577l-0.43446,10.657c6.51697,-8.02294 16.86746,-6.54529 16.86746,-6.54529l-6.17451,13.75361" fill="#58595b" stroke="none" stroke-width="1" stroke-linecap="butt"/><g fill="#414042" stroke="none" stroke-width="1" stroke-linecap="butt"><path d="M64.62266,36.06754c0.31435,-1.23351 0.69515,-2.44132 1.09894,-3.64142c0.4038,-1.2001 0.83571,-2.38221 1.27784,-3.56175c0.21979,-0.59105 0.46002,-1.16926 0.69004,-1.75518c0.23001,-0.58592 0.48558,-1.16156 0.74115,-1.73719c0.51114,-1.15127 1.03761,-2.28712 1.6433,-3.39214l0.61336,1.10501c-0.33224,-0.04369 -0.72581,-0.06939 -1.09382,-0.08481c-0.36802,-0.01542 -0.75393,-0.01799 -1.13217,0c-0.75702,0.01326 -1.51284,0.06644 -2.26433,0.15933c-1.49965,0.18586 -2.97399,0.53925 -4.39576,1.05362c-0.70578,0.26051 -1.39535,0.56343 -2.06499,0.90714c-0.66085,0.34686 -1.29856,0.73657 -1.90909,1.1667c-1.2267,0.86798 -2.3306,1.89931 -3.28148,3.06578l-1.50018,1.81686l0.53669,-13.00323l0.98905,0.80692c-0.37568,0.12849 -0.79226,0.30838 -1.1935,0.47541c-0.40124,0.16703 -0.79737,0.35463 -1.1935,0.53966c-0.78715,0.38033 -1.55896,0.78637 -2.30011,1.23351c-1.49419,0.87097 -2.87831,1.9202 -4.1223,3.12489c-1.23806,1.19026 -2.25878,2.58976 -3.0157,4.13482c-0.20445,0.38033 -0.35779,0.77095 -0.5418,1.17697l-0.2249,0.6219l-0.12012,0.30837l-0.10222,0.31608c-0.30668,0.83262 -0.49069,1.70892 -0.74115,2.62121c-0.20986,-0.92035 -0.28222,-1.86701 -0.21468,-2.80879l0.02555,-0.35977c0,-0.11821 0.03322,-0.23129 0.05112,-0.35206c0.03578,-0.23642 0.06901,-0.47285 0.11756,-0.70927c0.10154,-0.46915 0.23387,-0.931 0.39613,-1.38255c0.16193,-0.45418 0.34966,-0.89862 0.56225,-1.33116c0.23001,-0.42144 0.46002,-0.84804 0.72582,-1.24893c0.51317,-0.81271 1.10561,-1.57199 1.76853,-2.26657c0.65669,-0.69309 1.36495,-1.33483 2.11866,-1.91965c0.75027,-0.57664 1.5393,-1.10041 2.36145,-1.56758c0.81593,-0.46807 1.66106,-0.88267 2.53011,-1.24122c0.43447,-0.17132 0.87405,-0.33578 1.31873,-0.4934c0.45236,-0.15419 0.88681,-0.27755 1.38006,-0.39575l1.04783,-0.29553l-0.48558,11.74402l-1.40562,-0.53966c1.04287,-1.28162 2.25231,-2.4165 3.59584,-3.37416c0.67266,-0.4737 1.37525,-0.90291 2.10332,-1.28491c0.72899,-0.37539 1.48005,-0.70579 2.24899,-0.98937c1.53512,-0.55358 3.12697,-0.93285 4.74589,-1.13071c0.80651,-0.10101 1.61783,-0.15849 2.43044,-0.17218l1.22672,0.01285c0.40891,0.01285 0.80248,0.04112 1.25228,0.09765l0.98138,0.0771l-0.37057,1.02792c-0.42425,1.18725 -0.92005,2.33852 -1.44652,3.48466c-0.25557,0.57306 -0.53669,1.13842 -0.80504,1.70378c-0.26835,0.56536 -0.55713,1.13071 -0.85104,1.68579c-0.58269,1.1153 -1.17561,2.22802 -1.80686,3.32276c-0.63125,1.09474 -1.27783,2.19204 -1.99343,3.24824z"/><path d="M74.81979,48.8317c-2.61426,-0.49718 -4.46433,-2.33143 -4.13225,-4.09692c0.33208,-1.76549 2.72055,-2.79367 5.3348,-2.29649c2.61426,0.49718 4.46433,2.33143 4.13225,4.09692c-0.33208,1.76549 -2.72055,2.79367 -5.3348,2.29649z"/><path d="M27.82927,46.53033c-0.33208,-1.76549 1.518,-3.59974 4.13225,-4.09692c2.61426,-0.49718 5.00273,0.531 5.33481,2.29649c0.33208,1.76549 -1.518,3.59974 -4.13225,4.09692c-2.61426,0.49718 -5.00273,-0.531 -5.33481,-2.29649z"/></g></g></g></g></svg>