<svg version="1.1" xmlns="http://www.w3.org/2000/svg" xmlns:xlink="http://www.w3.org/1999/xlink" width="76.68888" height="88.1922" viewBox="0,0,76.68888,88.1922"><defs><linearGradient x1="53.99998" y1="101.87009" x2="53.99998" y2="52.03511" gradientUnits="userSpaceOnUse" id="color-1"><stop offset="0" stop-color="#414042"/><stop offset="0.52" stop-color="#353333"/></linearGradient><linearGradient x1="53.99998" y1="100.57148" x2="53.99998" y2="73.52076" gradientUnits="userSpaceOnUse" id="color-2"><stop offset="0" stop-color="#bfe7fb"/><stop offset="0.69" stop-color="#4cc9f5"/></linearGradient><linearGradient x1="82.69438" y1="69.30287" x2="86.51093" y2="83.23724" gradientUnits="userSpaceOnUse" id="color-3"><stop offset="0" stop-color="#ecf7fe" stop-opacity="0.1"/><stop offset="1" stop-color="#f27ba5"/></linearGradient><linearGradient x1="22.90775" y1="74.52283" x2="22.90775" y2="81.61399" gradientUnits="userSpaceOnUse" id="color-4"><stop offset="0" stop-color="#ecf7fe" stop-opacity="0.1"/><stop offset="1" stop-color="#f27ba5"/></linearGradient></defs><g transform="translate(-15.65556,-10.83784)"><g stroke-miterlimit="10"><path d="M83.04461,99.03003h-58.08925c-5.13613,0 -9.29979,-4.16366 -9.29979,-9.29979v-12.64855h76.68885v12.64855c0,5.13613 -4.16366,9.29979 -9.29979,9.29979z" fill="url(#color-1)" stroke="none" stroke-width="1" stroke-linecap="butt"/><path d="M92.3444,77.81278c0,5.13613 -4.16366,9.29979 -9.29979,9.29979h-58.08925c-5.13613,0 -9.29979,-4.16366 -9.29979,-9.29979v-46.56036c0,-8.52781 7.7788,-20.41458 13.39499,-20.41458c3.88556,0 8.809,5.1126 11.4701,11.50332h5.16373c1.14522,-2.99342 3.99294,-7.63054 10.73644,-7.63054l-2.08339,6.09676c0,0 3.39477,-2.77868 7.33146,-2.77868l0.73111,4.31248h5.30175c2.70967,-6.11978 7.46949,-11.50332 11.24771,-11.50332c5.61619,0 13.39499,10.68532 13.39499,20.41458z" fill="#414042" stroke="none" stroke-width="1" stroke-linecap="butt"/><path d="M84.00066,87.1177c0,0 -5.61363,11.91234 -12.64344,11.91234h-34.71449c-7.02981,0 -12.64599,-11.91234 -12.64599,-11.91234z" fill="url(#color-2)" stroke="none" stroke-width="1" stroke-linecap="butt"/><path d="M75.01783,70.35095c9.26402,0.72854 16.18902,1.99647 17.32657,3.80121v3.66062c0,5.13613 -4.16366,9.29979 -9.29979,9.29979h-58.08925c-5.13613,0 -9.29979,-4.16366 -9.29979,-9.29979v-3.66062c1.1401,-1.80475 8.06255,-3.07266 17.32146,-3.80887c2.53202,-0.20034 4.87201,-1.42731 6.47677,-3.39608c1.60476,-1.96877 2.33469,-4.50809 2.02036,-7.0285c-1.5849,-12.64089 -1.55422,-31.32484 12.52585,-31.32484c14.08007,0 14.11586,18.6763 12.52585,31.32484c-0.31584,2.5204 0.41271,5.06035 2.01654,7.03011c1.60381,1.96976 3.94337,3.19802 6.47548,3.39957z" fill="#e4f5fd" stroke="none" stroke-width="1" stroke-linecap="butt"/><path d="M80.59568,78.06841c0,-1.95817 2.01316,-3.54558 4.49653,-3.54558c2.48337,0 4.49653,1.58741 4.49653,3.54558c0,1.95817 -2.01316,3.54558 -4.49653,3.54558c-2.48337,0 -4.49653,-1.58741 -4.49653,-3.54558z" fill="url(#color-3)" stroke="none" stroke-width="1" stroke-linecap="butt"/><path d="M18.41123,78.06841c0,-1.95817 2.01316,-3.54558 4.49653,-3.54558c2.48337,0 4.49653,1.58741 4.49653,3.54558c0,1.95817 -2.01316,3.54558 -4.49653,3.54558c-2.48337,0 -4.49653,-1.58741 -4.49653,-3.54558z" fill="url(#color-4)" stroke="none" stroke-width="1" stroke-linecap="butt"/><g fill="#231f20" stroke="none" stroke-width="1" stroke-linecap="butt"><path d="M67.64547,61.69279c0,-6.23312 5.05293,-11.28605 11.28605,-11.28605c6.23312,0 11.28605,5.05293 11.28605,11.28605c0,6.23312 -5.05293,11.28605 -11.28605,11.28605c-6.23312,0 -11.28605,-5.05293 -11.28605,-11.28605z"/><path d="M17.78238,61.69279c0,-6.23312 5.05293,-11.28605 11.28605,-11.28605c6.23312,0 11.28605,5.05293 11.28605,11.28605c0,6.23312 -5.05293,11.28605 -11.28605,11.28605c-6.23312,0 -11.28605,-5.05293 -11.28605,-11.28605z"/></g><g fill="#ffffff" stroke="none" stroke-width="1" stroke-linecap="butt"><path d="M67.64547,64.82681c0,-6.23312 5.05293,-11.28605 11.28605,-11.28605c6.23312,0 11.28605,5.05293 11.28605,11.28605c0,6.23312 -5.05293,11.28605 -11.28605,11.28605c-6.23312,0 -11.28605,-5.05293 -11.28605,-11.28605z"/><path d="M17.78238,64.82681c0,-6.23312 5.05293,-11.28605 11.28605,-11.28605c6.23312,0 11.28605,5.05293 11.28605,11.28605c0,6.23312 -5.05293,11.28605 -11.28605,11.28605c-6.23312,0 -11.28605,-5.05293 -11.28605,-11.28605z"/></g><path d="M38.90249,63.201c0.62832,2.94541 -0.66817,5.96702 -3.23571,7.54117c-2.56755,1.57413 -5.84852,1.3589 -8.18843,-0.53715c-2.33991,-1.89605 -3.23057,-5.06115 -2.22284,-7.89923c1.00772,-2.83808 3.69497,-4.73275 6.70665,-4.72862c0.33443,0.00057 0.66841,0.02449 0.9995,0.07158c-1.22896,1.6715 -1.0118,3.99836 0.50525,5.41358c1.51706,1.41522 3.85338,1.47043 5.43558,0.12847zM30.67122,67.62084c0,-0.9318 -0.75536,-1.68716 -1.68716,-1.68716c-0.9318,0 -1.68716,0.75536 -1.68716,1.68716c0,0.9318 0.75536,1.68716 1.68716,1.68716c0.9318,0 1.68716,-0.75536 1.68716,-1.68716zM79.55867,70.81959c-2.69352,1.53552 -6.07241,1.14238 -8.34144,-0.97052c-2.26903,-2.11291 -2.90162,-5.45526 -1.56165,-8.25122c1.33995,-2.79596 4.34149,-4.39668 7.40984,-3.95167c-1.11002,1.66779 -0.84861,3.89413 0.61755,5.25943c1.46617,1.3653 3.70549,1.4676 5.29004,0.24172c0.66224,3.02892 -0.72083,6.13675 -3.41435,7.67227zM72.9958,69.30287c0.44924,0.00273 0.88101,-0.17382 1.19962,-0.49052c0.31861,-0.3167 0.49778,-0.7474 0.49776,-1.19664c0,-0.93146 -0.75485,-1.68668 -1.68631,-1.68716c-0.93146,-0.00046 -1.68706,0.75399 -1.688,1.68545c-0.00094,0.93146 0.75314,1.68744 1.68461,1.68886z" fill="#414042" stroke="none" stroke-width="1" stroke-linecap="butt"/><path d="M40.85038,78.6129c13.14958,4.26135 13.14958,-8.51246 13.14958,-8.51246c0,0 0,12.78148 13.14958,8.51246" fill="none" stroke="#414042" stroke-width="3" stroke-linecap="round"/><path d="M46.76055,65.28694c0,-3.06755 14.47375,-2.69433 14.47375,0c0,2.69433 -4.20255,5.95617 -7.23431,5.95617c-3.03176,0 -7.23431,-2.88861 -7.23431,-5.95617z" fill="#414042" stroke="none" stroke-width="1" stroke-linecap="butt"/><g fill="#e4f5fd" stroke="none" stroke-width="1" stroke-linecap="butt"><path d="M29.0234,51.29492c-3.96002,-0.95291 -6.65159,-3.88076 -6.01181,-6.53952c0.63978,-2.65876 4.36866,-4.04164 8.32868,-3.08873c3.96002,0.95291 6.65159,3.88074 6.01181,6.53951c-0.63978,2.65876 -4.36866,4.04165 -8.32868,3.08875z"/><path d="M70.64549,48.23562c-0.63978,-2.65876 2.05179,-5.58662 6.01181,-6.53952c3.96002,-0.95291 7.68888,0.42998 8.32868,3.08875c0.63978,2.65876 -2.05179,5.58662 -6.01181,6.53951c-3.96002,0.95291 -7.6889,-0.42996 -8.32868,-3.08873z"/></g><path d="M88.68634,30.1251c0,0.05879 -0.22495,0.44479 -1.27815,0.88959c-1.0532,0.4448 -2.54096,0.78479 -4.33037,0.99695c-4.10202,-2.93024 -8.65266,-5.17491 -13.47423,-6.64637c0.88006,-2.67338 2.20399,-5.17949 3.91625,-7.41326c1.84054,-2.36714 3.83444,-3.83445 5.20718,-3.83445c3.56859,0 9.96189,8.05744 9.95933,16.00752z" fill="#ecf7fe" stroke="none" stroke-width="1" stroke-linecap="butt"/><path d="M71.95795,26.15517c0.7286,-1.61899 1.64308,-3.14769 2.72501,-4.55531c1.85076,-2.37735 3.35386,-3.14424 3.79354,-3.14424c0.63906,0 2.65854,1.02251 4.80584,4.17954c1.8073,2.6611 2.99342,5.80279 3.28995,8.65305c-1.14117,0.33953 -2.31078,0.57482 -3.49445,0.70299c-3.42252,-2.44716 -7.16498,-4.41258 -11.12244,-5.84113z" fill="#dd7399" stroke="none" stroke-width="1" stroke-linecap="butt"/><path d="M19.31361,30.10721c0,-7.92963 6.39074,-15.98962 9.96954,-15.99474c1.37274,0 3.36664,1.47242 5.20718,3.83444c1.71226,2.23376 3.03618,4.73987 3.91625,7.41326c-4.82524,1.46623 -9.38023,3.7066 -13.48701,6.63359c-1.78941,-0.21218 -3.27461,-0.55216 -4.33037,-0.99695c-1.05575,-0.4448 -1.27815,-0.83079 -1.27815,-0.88959z" fill="#ecf7fe" stroke="none" stroke-width="1" stroke-linecap="butt"/><path d="M36.04455,26.15006c-3.95747,1.42856 -7.69992,3.39397 -11.12244,5.84113c-1.18368,-0.12817 -2.3533,-0.36346 -3.49445,-0.70299c0.29653,-2.85027 1.48265,-5.99196 3.28995,-8.65305c2.14729,-3.15703 4.16676,-4.17954 4.80584,-4.17954c0.43968,0 1.94279,0.7669 3.79354,3.14424c1.08192,1.40762 1.99642,2.93634 2.72501,4.55531z" fill="#dd7399" stroke="none" stroke-width="1" stroke-linecap="butt"/></g></g></svg>