<svg version="1.1" xmlns="http://www.w3.org/2000/svg" xmlns:xlink="http://www.w3.org/1999/xlink" width="84.14532" height="28.08663" viewBox="0,0,84.14532,28.08663"><g transform="translate(-11.92734,-169.95668)"><g stroke="none" stroke-miterlimit="10"><g fill="#353535"><path d="M17.45405,198.04332v-10.92361h73.08972v10.92361z" stroke-width="0"/><path d="M17.53583,197.85243c-3.0975,0 -5.60849,-2.40623 -5.60849,-5.37448c0,-2.96824 2.511,-5.37449 5.60849,-5.37449c3.0975,0 5.60849,2.40624 5.60849,5.37449c0,2.96824 -2.51101,5.37448 -5.60849,5.37448z" stroke-width="0.5"/><path d="M90.24776,197.84736c-3.00355,0 -5.43838,-2.40288 -5.43838,-5.367c0,-2.96411 2.43485,-5.36701 5.43838,-5.36701c3.00353,0 5.43838,2.40291 5.43838,5.36702c0,2.96411 -2.43485,5.367 -5.43838,5.367z" stroke-width="0.5"/></g><g fill="#6c3377"><path d="M17.83906,185.36103c-3.0975,0 -5.60849,-2.47133 -5.60849,-5.51986c0,-3.04854 2.51101,-5.51986 5.60849,-5.51986c3.0975,0 5.60849,2.47133 5.60849,5.51986c0,3.04854 -2.51101,5.51986 -5.60849,5.51986z" stroke-width="0.5"/><path d="M17.75727,195.41819v-21.10014h73.0897v21.10014z" stroke-width="0"/><path d="M90.55098,185.1364c-3.00355,0 -5.43838,-2.40288 -5.43838,-5.36701c0,-2.96411 2.43485,-5.36701 5.43838,-5.36701c3.00353,0 5.43838,2.40291 5.43838,5.36702c0,2.96411 -2.43485,5.36702 -5.43838,5.36702z" stroke-width="0.5"/><path d="M17.83906,195.2273c-3.0975,0 -5.60849,-2.47133 -5.60849,-5.51986c0,-3.04854 2.51101,-5.51986 5.60849,-5.51986c3.0975,0 5.60849,2.47133 5.60849,5.51986c0,3.04854 -2.51101,5.51986 -5.60849,5.51986z" stroke-width="0.5"/><path d="M90.55098,195.51298c-3.00355,0 -5.43838,-2.40288 -5.43838,-5.36701c0,-2.96411 2.43485,-5.36701 5.43838,-5.36701c3.00353,0 5.43838,2.40291 5.43838,5.36702c0,2.96411 -2.43485,5.36702 -5.43838,5.36702z" stroke-width="0.5"/><path d="M12.26615,190.14437v-10.37657h83.80651v10.37657z" stroke-width="0"/></g><g fill="#9a49aa"><path d="M17.83906,180.99966c-3.0975,0 -5.60849,-2.47133 -5.60849,-5.51986c0,-3.04854 2.51101,-5.51986 5.60849,-5.51986c3.0975,0 5.60849,2.47133 5.60849,5.51986c0,3.04854 -2.51101,5.51986 -5.60849,5.51986z" stroke-width="0.5"/><path d="M17.75727,191.05682v-21.10014h73.0897v21.10014z" stroke-width="0"/><path d="M90.55098,180.77502c-3.00355,0 -5.43838,-2.40288 -5.43838,-5.36701c0,-2.96411 2.43485,-5.36701 5.43838,-5.36701c3.00353,0 5.43838,2.40291 5.43838,5.36702c0,2.96411 -2.43485,5.36702 -5.43838,5.36702z" stroke-width="0.5"/><path d="M17.83906,190.86593c-3.0975,0 -5.60849,-2.47133 -5.60849,-5.51986c0,-3.04854 2.51101,-5.51986 5.60849,-5.51986c3.0975,0 5.60849,2.47133 5.60849,5.51986c0,3.04854 -2.51101,5.51986 -5.60849,5.51986z" stroke-width="0.5"/><path d="M90.55098,191.1516c-3.00355,0 -5.43838,-2.40288 -5.43838,-5.36701c0,-2.96411 2.43485,-5.36701 5.43838,-5.36701c3.00353,0 5.43838,2.40291 5.43838,5.36702c0,2.96411 -2.43485,5.36702 -5.43838,5.36702z" stroke-width="0.5"/><path d="M12.26615,185.783v-10.37657h83.80651v10.37657z" stroke-width="0"/></g></g></g></svg>