<svg version="1.1" xmlns="http://www.w3.org/2000/svg" xmlns:xlink="http://www.w3.org/1999/xlink" width="452.64339" height="133.49454" viewBox="0,0,452.64339,133.49454"><g transform="translate(-10.53856,-214.53846)"><g data-paper-data="{&quot;isPaintingLayer&quot;:true}" fill-rule="nonzero" stroke="none" stroke-linecap="butt" stroke-linejoin="miter" stroke-miterlimit="10" stroke-dasharray="" stroke-dashoffset="0" style="mix-blend-mode: normal"><g fill="#943726"><path d="M252.60099,302.96276c-3.34561,0 -6.05774,-2.66929 -6.05774,-5.962c0,-3.29273 2.71213,-5.962 6.05774,-5.962c3.34561,0 6.05774,2.66929 6.05774,5.962c0,3.29273 -2.71215,5.962 -6.05774,5.962z" stroke-width="0.5"/><path d="M252.5963,348.03138c-3.34561,0 -6.05774,-2.66929 -6.05774,-5.962c0,-3.29273 2.71213,-5.962 6.05774,-5.962c3.34561,0 6.05774,2.66929 6.05774,5.962c0,3.29273 -2.71215,5.962 -6.05774,5.962z" stroke-width="0.5"/><path d="M252.13646,348.033v-56.99454h205.21133v56.99454z" stroke-width="0"/><path d="M457.30733,348.02266c-3.24414,0 -5.874,-2.59536 -5.874,-5.79692c0,-3.20153 2.62988,-5.79692 5.874,-5.79692c3.24412,0 5.87401,2.59539 5.87401,5.79692c0,3.20153 -2.62989,5.79692 -5.87401,5.79692z" stroke-width="0.5"/><path d="M457.30325,302.64844c-3.24414,0 -5.87401,-2.59536 -5.87401,-5.7969c0,-3.20154 2.62989,-5.79692 5.87401,-5.79692c3.24412,0 5.874,2.59538 5.874,5.79692c0,3.20154 -2.62988,5.7969 -5.874,5.7969z" stroke-width="0.5"/><path d="M246.5917,342.35589v-45.899h216.59025v45.899z" stroke-width="0"/></g><g fill="#3b53a8"><path d="M252.60099,231.96276c-3.34561,0 -6.05774,-2.66929 -6.05774,-5.962c0,-3.29273 2.71213,-5.962 6.05774,-5.962c3.34561,0 6.05774,2.66929 6.05774,5.962c0,3.29273 -2.71215,5.962 -6.05774,5.962z" stroke-width="0.5"/><path d="M252.5963,277.03138c-3.34561,0 -6.05774,-2.66929 -6.05774,-5.962c0,-3.29273 2.71213,-5.962 6.05774,-5.962c3.34561,0 6.05774,2.66929 6.05774,5.962c0,3.29273 -2.71215,5.962 -6.05774,5.962z" stroke-width="0.5"/><path d="M252.13646,277.033v-56.99454h205.21133v56.99454z" stroke-width="0"/><path d="M457.30733,277.02266c-3.24414,0 -5.874,-2.59536 -5.874,-5.79692c0,-3.20153 2.62988,-5.79692 5.874,-5.79692c3.24412,0 5.87401,2.59539 5.87401,5.79692c0,3.20153 -2.62988,5.79692 -5.87401,5.79692z" stroke-width="0.5"/><path d="M457.30325,231.64844c-3.24414,0 -5.87401,-2.59536 -5.87401,-5.7969c0,-3.20154 2.62989,-5.79692 5.87401,-5.79692c3.24412,0 5.874,2.59538 5.874,5.79692c0,3.20154 -2.62988,5.7969 -5.874,5.7969z" stroke-width="0.5"/><path d="M246.5917,271.35589v-45.899h216.59025v45.899z" stroke-width="0"/></g><g fill="#208033"><path d="M16.60099,301.46276c-3.34561,0 -6.05774,-2.66928 -6.05774,-5.962c0,-3.29274 2.71213,-5.962 6.05774,-5.962c3.34561,0 6.05774,2.66928 6.05774,5.962c0,3.29274 -2.71215,5.962 -6.05774,5.962z" stroke-width="0.5"/><path d="M16.5963,346.53138c-3.34561,0 -6.05774,-2.66928 -6.05774,-5.962c0,-3.29274 2.71213,-5.962 6.05774,-5.962c3.34561,0 6.05774,2.66928 6.05774,5.962c0,3.29274 -2.71215,5.962 -6.05774,5.962z" stroke-width="0.5"/><path d="M16.13646,346.533v-56.99454h205.21133v56.99454z" stroke-width="0"/><path d="M221.30733,346.52266c-3.24414,0 -5.874,-2.59536 -5.874,-5.79692c0,-3.20154 2.62988,-5.79692 5.874,-5.79692c3.24412,0 5.874,2.59538 5.874,5.79692c0,3.20154 -2.62988,5.79692 -5.874,5.79692z" stroke-width="0.5"/><path d="M221.30324,301.14844c-3.24414,0 -5.874,-2.59536 -5.874,-5.7969c0,-3.20154 2.62988,-5.79692 5.874,-5.79692c3.24412,0 5.874,2.59538 5.874,5.79692c0,3.20154 -2.62988,5.7969 -5.874,5.7969z" stroke-width="0.5"/><path d="M10.5917,340.85589v-45.89901h216.59024v45.89901z" stroke-width="0"/></g><g fill="#969900"><path d="M16.60099,230.96276c-3.34561,0 -6.05774,-2.66929 -6.05774,-5.962c0,-3.29273 2.71213,-5.962 6.05774,-5.962c3.34561,0 6.05774,2.66929 6.05774,5.962c0,3.29273 -2.71215,5.962 -6.05774,5.962z" stroke-width="0.5"/><path d="M16.5963,276.03138c-3.34561,0 -6.05774,-2.66929 -6.05774,-5.962c0,-3.29273 2.71213,-5.962 6.05774,-5.962c3.34561,0 6.05774,2.66929 6.05774,5.962c0,3.29273 -2.71215,5.962 -6.05774,5.962z" stroke-width="0.5"/><path d="M16.13646,276.033v-56.99454h205.21133v56.99454z" stroke-width="0"/><path d="M221.30733,276.02266c-3.24414,0 -5.874,-2.59536 -5.874,-5.79692c0,-3.20153 2.62988,-5.79692 5.874,-5.79692c3.24412,0 5.874,2.59539 5.874,5.79692c0,3.20153 -2.62988,5.79692 -5.874,5.79692z" stroke-width="0.5"/><path d="M221.30325,230.64844c-3.24414,0 -5.87401,-2.59536 -5.87401,-5.7969c0,-3.20153 2.62989,-5.79692 5.87401,-5.79692c3.24412,0 5.874,2.59539 5.874,5.79692c0,3.20153 -2.62988,5.7969 -5.874,5.7969z" stroke-width="0.5"/><path d="M10.5917,270.35589v-45.899h216.59025v45.899z" stroke-width="0"/></g><g fill="#33cc52"><path d="M16.60099,296.46276c-3.34561,0 -6.05774,-2.66928 -6.05774,-5.962c0,-3.29274 2.71213,-5.962 6.05774,-5.962c3.34561,0 6.05774,2.66928 6.05774,5.962c0,3.29274 -2.71215,5.962 -6.05774,5.962z" stroke-width="0.5"/><path d="M16.5963,341.53138c-3.34561,0 -6.05774,-2.66928 -6.05774,-5.962c0,-3.29274 2.71213,-5.962 6.05774,-5.962c3.34561,0 6.05774,2.66928 6.05774,5.962c0,3.29274 -2.71215,5.962 -6.05774,5.962z" stroke-width="0.5"/><path d="M16.13646,341.533v-56.99454h205.21133v56.99454z" stroke-width="0"/><path d="M221.30733,341.52266c-3.24414,0 -5.874,-2.59536 -5.874,-5.79692c0,-3.20154 2.62988,-5.79692 5.874,-5.79692c3.24412,0 5.874,2.59538 5.874,5.79692c0,3.20154 -2.62988,5.79692 -5.874,5.79692z" stroke-width="0.5"/><path d="M221.30324,296.14844c-3.24414,0 -5.874,-2.59536 -5.874,-5.7969c0,-3.20154 2.62988,-5.79692 5.874,-5.79692c3.24412,0 5.874,2.59538 5.874,5.79692c0,3.20154 -2.62988,5.7969 -5.874,5.7969z" stroke-width="0.5"/><path d="M10.5917,335.85589v-45.89901h216.59024v45.89901z" stroke-width="0"/></g><g fill="#e2e600"><path d="M16.60099,226.46276c-3.34561,0 -6.05774,-2.66929 -6.05774,-5.962c0,-3.29273 2.71213,-5.962 6.05774,-5.962c3.34561,0 6.05774,2.66929 6.05774,5.962c0,3.29273 -2.71215,5.962 -6.05774,5.962z" stroke-width="0.5"/><path d="M16.5963,271.53138c-3.34561,0 -6.05774,-2.66929 -6.05774,-5.962c0,-3.29273 2.71213,-5.962 6.05774,-5.962c3.34561,0 6.05774,2.66929 6.05774,5.962c0,3.29273 -2.71215,5.962 -6.05774,5.962z" stroke-width="0.5"/><path d="M16.13646,271.533v-56.99454h205.21133v56.99454z" stroke-width="0"/><path d="M221.30733,271.52266c-3.24414,0 -5.874,-2.59536 -5.874,-5.79692c0,-3.20153 2.62988,-5.79692 5.874,-5.79692c3.24412,0 5.874,2.59539 5.874,5.79692c0,3.20153 -2.62988,5.79692 -5.874,5.79692z" stroke-width="0.5"/><path d="M221.30325,226.14844c-3.24414,0 -5.87401,-2.59536 -5.87401,-5.7969c0,-3.20153 2.62989,-5.79692 5.87401,-5.79692c3.24412,0 5.874,2.59539 5.874,5.79692c0,3.20153 -2.62988,5.7969 -5.874,5.7969z" stroke-width="0.5"/><path d="M10.5917,265.85589v-45.899h216.59025v45.899z" stroke-width="0"/></g><g fill="#5779f6"><path d="M252.60099,226.46276c-3.34561,0 -6.05774,-2.66929 -6.05774,-5.962c0,-3.29273 2.71213,-5.962 6.05774,-5.962c3.34561,0 6.05774,2.66929 6.05774,5.962c0,3.29273 -2.71215,5.962 -6.05774,5.962z" stroke-width="0.5"/><path d="M252.5963,271.53138c-3.34561,0 -6.05774,-2.66929 -6.05774,-5.962c0,-3.29273 2.71213,-5.962 6.05774,-5.962c3.34561,0 6.05774,2.66929 6.05774,5.962c0,3.29273 -2.71215,5.962 -6.05774,5.962z" stroke-width="0.5"/><path d="M252.13646,271.533v-56.99454h205.21133v56.99454z" stroke-width="0"/><path d="M457.30733,271.52266c-3.24414,0 -5.874,-2.59536 -5.874,-5.79692c0,-3.20153 2.62988,-5.79692 5.874,-5.79692c3.24412,0 5.87401,2.59539 5.87401,5.79692c0,3.20153 -2.62988,5.79692 -5.87401,5.79692z" stroke-width="0.5"/><path d="M457.30325,226.14844c-3.24414,0 -5.87401,-2.59536 -5.87401,-5.7969c0,-3.20154 2.62989,-5.79692 5.87401,-5.79692c3.24412,0 5.874,2.59538 5.874,5.79692c0,3.20154 -2.62988,5.7969 -5.874,5.7969z" stroke-width="0.5"/><path d="M246.5917,265.85589v-45.899h216.59025v45.899z" stroke-width="0"/></g><g fill="#e0553b"><path d="M252.60099,297.46276c-3.34561,0 -6.05774,-2.66929 -6.05774,-5.962c0,-3.29273 2.71213,-5.962 6.05774,-5.962c3.34561,0 6.05774,2.66929 6.05774,5.962c0,3.29273 -2.71215,5.962 -6.05774,5.962z" stroke-width="0.5"/><path d="M252.5963,342.53138c-3.34561,0 -6.05774,-2.66929 -6.05774,-5.962c0,-3.29273 2.71213,-5.962 6.05774,-5.962c3.34561,0 6.05774,2.66929 6.05774,5.962c0,3.29273 -2.71215,5.962 -6.05774,5.962z" stroke-width="0.5"/><path d="M252.13646,342.533v-56.99454h205.21133v56.99454z" stroke-width="0"/><path d="M457.30733,342.52266c-3.24414,0 -5.874,-2.59536 -5.874,-5.79692c0,-3.20153 2.62988,-5.79692 5.874,-5.79692c3.24412,0 5.87401,2.59539 5.87401,5.79692c0,3.20153 -2.62989,5.79692 -5.87401,5.79692z" stroke-width="0.5"/><path d="M457.30325,297.14844c-3.24414,0 -5.87401,-2.59536 -5.87401,-5.7969c0,-3.20154 2.62989,-5.79692 5.87401,-5.79692c3.24412,0 5.874,2.59538 5.874,5.79692c0,3.20154 -2.62988,5.7969 -5.874,5.7969z" stroke-width="0.5"/><path d="M246.5917,336.85589v-45.899h216.59025v45.899z" stroke-width="0"/></g></g></g></svg>