<svg version="1.1" xmlns="http://www.w3.org/2000/svg" xmlns:xlink="http://www.w3.org/1999/xlink" width="90.42082" height="91.61988" viewBox="0,0,90.42082,91.61988"><defs><linearGradient x1="49.53176" y1="100.77283" x2="49.53176" y2="41.70379" gradientUnits="userSpaceOnUse" id="color-1"><stop offset="0" stop-color="#414042"/><stop offset="0.52" stop-color="#353333"/></linearGradient><linearGradient x1="83.35601" y1="64.84358" x2="87.85486" y2="81.35989" gradientUnits="userSpaceOnUse" id="color-2"><stop offset="0" stop-color="#ecf7fe" stop-opacity="0.1"/><stop offset="1" stop-color="#f27ba5"/></linearGradient><linearGradient x1="12.88105" y1="71.03076" x2="12.88105" y2="79.43586" gradientUnits="userSpaceOnUse" id="color-3"><stop offset="0" stop-color="#ecf7fe" stop-opacity="0.1"/><stop offset="1" stop-color="#f27ba5"/></linearGradient></defs><g transform="translate(-4.3319,-5.78666)"><g data-paper-data="{&quot;isPaintingLayer&quot;:true}" fill-rule="nonzero" stroke-linejoin="miter" stroke-miterlimit="10" stroke-dasharray="" stroke-dashoffset="0" style="mix-blend-mode: normal"><path d="M83.76883,97.40654h-68.47413c-6.05435,0 -10.96237,-4.93516 -10.96237,-11.02299v-14.99223h90.39887v14.99223c0,6.08783 -4.90802,11.02299 -10.96237,11.02299z" fill="url(#color-1)" stroke="none" stroke-width="1" stroke-linecap="butt"/><path d="M94.7312,51.95717v20.30072c0,6.08783 -4.90802,11.02299 -10.96237,11.02299h-68.47413c-6.05435,0 -10.96237,-4.93516 -10.96237,-11.02299v-20.30072c0,-25.10017 17.30234,-41.32257 45.19943,-41.32257c27.89709,0 45.19943,16.2224 45.19943,41.32257z" fill="#58595b" stroke="none" stroke-width="1" stroke-linecap="butt"/><path d="M43.65584,76.12715l5.87593,-9.76253l5.87593,9.76253" fill="none" stroke="#414042" stroke-width="4" stroke-linecap="round"/><path d="M57.31209,61.65304c0,2.91179 -4.51994,6.43563 -7.78033,6.43563c-3.26039,0 -7.78033,-3.10268 -7.78033,-6.43563c0,-3.31477 15.56066,-2.91179 15.56066,0z" fill="#414042" stroke="none" stroke-width="1" stroke-linecap="butt"/><path d="M80.88209,75.23331c0,-2.32101 2.37306,-4.20255 5.30039,-4.20255c2.92732,0 5.30039,1.88155 5.30039,4.20255c0,2.32101 -2.37306,4.20255 -5.30039,4.20255c-2.92732,0 -5.30039,-1.88155 -5.30039,-4.20255z" fill="url(#color-2)" stroke="none" stroke-width="1" stroke-linecap="butt"/><path d="M7.58066,75.23331c0,-2.32101 2.37306,-4.20255 5.30039,-4.20255c2.92732,0 5.30039,1.88155 5.30039,4.20255c0,2.32101 -2.37306,4.20255 -5.30039,4.20255c-2.92732,0 -5.30039,-1.88155 -5.30039,-4.20255z" fill="url(#color-3)" stroke="none" stroke-width="1" stroke-linecap="butt"/><g fill="#414042" stroke="none" stroke-width="1" stroke-linecap="butt"><path d="M65.61674,58.42916c0,-7.38806 5.95627,-13.37727 13.3037,-13.37727c7.34743,0 13.3037,5.98921 13.3037,13.37727c0,7.38806 -5.95627,13.37727 -13.3037,13.37727c-7.34743,0 -13.3037,-5.98921 -13.3037,-13.37727z"/><path d="M6.83939,58.42916c0,-7.38806 5.95627,-13.37727 13.3037,-13.37727c7.34743,0 13.3037,5.98921 13.3037,13.37727c0,7.38806 -5.95627,13.37727 -13.3037,13.37727c-7.34743,0 -13.3037,-5.98921 -13.3037,-13.37727z"/></g><g fill="#ffffff" stroke="none" stroke-width="1" stroke-linecap="butt"><path d="M65.61674,62.14389c0,-7.38806 5.95627,-13.37727 13.3037,-13.37727c7.34743,0 13.3037,5.98921 13.3037,13.37727c0,7.38806 -5.95627,13.37727 -13.3037,13.37727c-7.34743,0 -13.3037,-5.98921 -13.3037,-13.37727z"/><path d="M6.83939,62.14389c0,-7.38806 5.95627,-13.37727 13.3037,-13.37727c7.34743,0 13.3037,5.98921 13.3037,13.37727c0,7.38806 -5.95627,13.37727 -13.3037,13.37727c-7.34743,0 -13.3037,-5.98921 -13.3037,-13.37727z"/></g><path d="M26.5132,59.86839c0.71848,0.00192 1.43023,-0.13916 2.09424,-0.4151c0.03917,0.42419 0.03917,0.87869 0.03917,1.33318c0,5.19638 -1.80798,9.43832 -6.51776,9.43832c-4.70978,0 -6.51776,-4.22679 -6.51776,-9.43832c0,-5.16305 1.69649,-9.35348 6.37915,-9.43529c-1.11505,1.67915 -1.22115,3.83893 -0.27608,5.62041c0.94506,1.78147 2.78805,2.89581 4.79603,2.89984zM19.88997,66.99788c1.24198,-0.00334 2.24657,-1.01756 2.24491,-2.26641c0,-1.2517 -1.00913,-2.26641 -2.25395,-2.26641c-1.24482,0 -2.25395,1.01471 -2.25395,2.26641c0,1.2517 1.00913,2.26641 2.25395,2.26641zM83.41929,59.57146c0.02411,0.40399 0.03616,0.80799 0.03616,1.21198c0,5.19638 -1.80798,9.43832 -6.51776,9.43832c-4.70978,0 -6.51776,-4.22376 -6.51776,-9.43832c0,-5.21456 1.72662,-9.43832 6.51776,-9.43832h0.17176c-1.1184,1.67935 -1.22636,3.84148 -0.28087,5.62503c0.94549,1.78355 2.79081,2.89873 4.80081,2.90127c0.60918,0.00219 1.21435,-0.09923 1.7899,-0.29997zM75.00918,66.99788c1.24393,-0.00251 2.25067,-1.01786 2.24942,-2.26868c-0.00125,-1.25082 -1.01001,-2.26414 -2.25394,-2.26414c-1.24394,0 -2.2527,1.01332 -2.25394,2.26414c-0.00125,1.25082 1.00549,2.26617 2.24942,2.26868z" fill="#414042" stroke="none" stroke-width="1" stroke-linecap="butt"/><path d="M59.77697,27.7175c7.83457,-15.10434 31.45881,-21.93084 31.45881,-21.93084h-0.02411c0,0 7.91894,23.38219 0.07232,38.48047c0,0 -5.64089,0.88778 -17.32645,-5.24789c-11.68556,-6.13567 -14.18057,-11.30174 -14.18057,-11.30174zM39.30464,27.7175c-7.85265,-15.10434 -31.45579,-21.93084 -31.45579,-21.93084h0.02411c0,0 -7.91894,23.38219 -0.07232,38.48047c0,0 5.64089,0.88778 17.32645,-5.24789c11.68556,-6.13567 14.18057,-11.30174 14.18057,-11.30174z" fill="#58595b" stroke="none" stroke-width="1" stroke-linecap="butt"/><path d="M28.74002,23.53616c-4.86346,-9.36257 -19.49602,-13.59542 -19.49602,-13.59542h0.01507c0,0 -4.89661,14.48623 -0.03616,23.83668c0,0 3.49542,0.55145 10.73637,-3.25418c7.24095,-3.80563 8.78074,-6.98708 8.78074,-6.98708zM70.3235,23.53616c4.86346,-9.36257 19.49602,-13.59239 19.49602,-13.59239h-0.01507c0,0 4.91167,14.49532 0.0452,23.85789c0,0 -3.49542,0.55145 -10.73637,-3.25418c-7.24095,-3.80563 -8.78978,-7.01132 -8.78978,-7.01132z" fill="#f6a9cb" stroke="none" stroke-width="1" stroke-linecap="butt"/><path d="M34.23326,25.46322c0,-13.73177 15.73844,-18.04643 15.73844,-18.04643l-0.51226,12.56524c7.6839,-9.45953 19.88775,-7.7173 19.88775,-7.7173l-7.28012,16.21634" fill="#58595b" stroke="none" stroke-width="1" stroke-linecap="butt"/><g fill="#414042" stroke="none" stroke-width="1" stroke-linecap="butt"><path d="M62.06707,28.48105c0.37064,-1.45438 0.81962,-2.87846 1.29572,-4.29345c0.4761,-1.41499 0.98535,-2.80877 1.50665,-4.19952c0.25914,-0.69689 0.54239,-1.37863 0.81359,-2.06946c0.2712,-0.69083 0.57253,-1.36954 0.87386,-2.04825c0.60266,-1.35742 1.2234,-2.69666 1.93755,-3.99954l0.72319,1.30288c-0.39173,-0.05151 -0.85578,-0.08181 -1.28969,-0.09999c-0.43391,-0.01818 -0.88892,-0.02121 -1.33489,0c-0.89258,0.01563 -1.78373,0.07834 -2.66978,0.18786c-1.76817,0.21914 -3.50652,0.63581 -5.18287,1.24228c-0.83216,0.30716 -1.6452,0.66432 -2.43474,1.06958c-0.77918,0.40897 -1.53108,0.86847 -2.25093,1.3756c-1.44635,1.0234 -2.74792,2.2394 -3.86907,3.61474l-1.7688,2.14218l0.63279,-15.33159l1.16615,0.95141c-0.44295,0.1515 -0.93412,0.36359 -1.40721,0.56054c-0.47309,0.19695 -0.94015,0.41813 -1.40721,0.63629c-0.9281,0.44843 -1.83811,0.92717 -2.71197,1.45438c-1.76174,1.02693 -3.3937,2.26403 -4.86045,3.68443c-1.45975,1.40338 -2.66324,3.05348 -3.55569,4.8752c-0.24106,0.44843 -0.42186,0.90899 -0.63882,1.38772l-0.26517,0.73325l-0.14162,0.36359l-0.12053,0.37268c-0.3616,0.98171 -0.57855,2.01492 -0.87386,3.09056c-0.24744,-1.08515 -0.33275,-2.20132 -0.25312,-3.31174l0.03013,-0.42419c0,-0.13938 0.03917,-0.2727 0.06027,-0.4151c0.04219,-0.27876 0.08136,-0.55751 0.13861,-0.83627c0.11972,-0.55315 0.27575,-1.09771 0.46706,-1.63012c0.19093,-0.5355 0.41227,-1.05953 0.66293,-1.56952c0.2712,-0.49691 0.54239,-0.99989 0.85578,-1.47256c0.60506,-0.95824 1.30358,-1.85347 2.0852,-2.67242c0.77427,-0.81719 1.60936,-1.57384 2.49802,-2.26338c0.88462,-0.67989 1.81493,-1.29745 2.78429,-1.84827c0.96203,-0.55188 1.95849,-1.04072 2.98316,-1.46347c0.51226,-0.202 1.03055,-0.39591 1.55486,-0.58175c0.53335,-0.1818 1.04561,-0.32724 1.62718,-0.46661l1.23545,-0.34845l-0.57253,13.84691l-1.65731,-0.63629c1.22961,-1.51111 2.65561,-2.8492 4.23971,-3.97834c0.79311,-0.55853 1.6215,-1.06459 2.47994,-1.51498c0.85953,-0.44261 1.74507,-0.83217 2.6517,-1.16653c1.80999,-0.65271 3.68688,-1.09988 5.59569,-1.33318c0.95092,-0.1191 1.90751,-0.18687 2.86564,-0.20301l1.44638,0.01515c0.48213,0.01515 0.94617,0.04848 1.47651,0.11514l1.15711,0.0909l-0.43693,1.21198c-0.50021,1.39984 -1.08479,2.75726 -1.70553,4.10862c-0.30133,0.67568 -0.63279,1.34227 -0.94919,2.00886c-0.3164,0.66659 -0.6569,1.33318 -1.00343,1.98765c-0.68703,1.315 -1.38612,2.62697 -2.1304,3.91774c-0.74428,1.29076 -1.50665,2.58455 -2.35037,3.82987z"/><path d="M74.0901,43.53077c-3.08237,-0.5862 -5.26371,-2.74889 -4.87217,-4.83051c0.39154,-2.08162 3.20769,-3.2939 6.29006,-2.7077c3.08237,0.5862 5.26371,2.74889 4.87217,4.83051c-0.39154,2.08162 -3.20769,3.2939 -6.29006,2.7077z"/><path d="M18.68544,40.81731c-0.39154,-2.08162 1.78981,-4.24431 4.87217,-4.83051c3.08237,-0.5862 5.89852,0.62608 6.29006,2.7077c0.39154,2.08162 -1.78981,4.24431 -4.87217,4.83051c-3.08237,0.5862 -5.89852,-0.62608 -6.29006,-2.7077z"/></g></g></g></svg>