<svg version="1.1" xmlns="http://www.w3.org/2000/svg" xmlns:xlink="http://www.w3.org/1999/xlink" width="168.83915" height="89.628" viewBox="0,0,168.83915,89.628"><defs><linearGradient x1="38.74569" y1="65.31943" x2="38.74569" y2="34.08877" gradientUnits="userSpaceOnUse" id="color-1"><stop offset="0" stop-color="#414042"/><stop offset="0.52" stop-color="#353333"/></linearGradient><linearGradient x1="38.74569" y1="64.50562" x2="38.74569" y2="47.55343" gradientUnits="userSpaceOnUse" id="color-2"><stop offset="0" stop-color="#bfe7fb"/><stop offset="0.69" stop-color="#4cc9f5"/></linearGradient><linearGradient x1="56.72794" y1="44.91016" x2="59.1197" y2="53.64257" gradientUnits="userSpaceOnUse" id="color-3"><stop offset="0" stop-color="#ecf7fe" stop-opacity="0.1"/><stop offset="1" stop-color="#f27ba5"/></linearGradient><linearGradient x1="19.26076" y1="48.18141" x2="19.26076" y2="52.62531" gradientUnits="userSpaceOnUse" id="color-4"><stop offset="0" stop-color="#ecf7fe" stop-opacity="0.1"/><stop offset="1" stop-color="#f27ba5"/></linearGradient></defs><g transform="translate(-14.71595,-8.2712)"><g data-paper-data="{&quot;isPaintingLayer&quot;:true}" fill-rule="nonzero" stroke-linejoin="miter" stroke-miterlimit="10" stroke-dasharray="" stroke-dashoffset="0" style="mix-blend-mode: normal"><g fill="#353535" stroke="none" stroke-linecap="butt"><path d="M17.9078,82.66035v-6.26157h41.89607v6.26157z" stroke-width="0"/><path d="M17.95468,82.55093c-1.77553,0 -3.21487,-1.37929 -3.21487,-3.08073c0,-1.70144 1.43934,-3.08073 3.21487,-3.08073c1.77553,0 3.21487,1.37929 3.21487,3.08073c0,1.70144 -1.43935,3.08073 -3.21487,3.08073z" stroke-width="0.5"/><path d="M59.63419,82.54802c-1.72168,0 -3.11736,-1.37737 -3.11736,-3.07644c0,-1.69907 1.39569,-3.07645 3.11736,-3.07645c1.72167,0 3.11736,1.37738 3.11736,3.07645c0,1.69907 -1.39569,3.07644 -3.11736,3.07644z" stroke-width="0.5"/></g><g fill="#6c3377" stroke="none" stroke-linecap="butt"><path d="M18.12849,75.39068c-1.77553,0 -3.21487,-1.4166 -3.21487,-3.16406c0,-1.74747 1.43935,-3.16406 3.21487,-3.16406c1.77553,0 3.21487,1.4166 3.21487,3.16406c0,1.74747 -1.43935,3.16406 -3.21487,3.16406z" stroke-width="0.5"/><path d="M18.08161,81.15559v-12.0949h41.89606v12.0949z" stroke-width="0"/><path d="M59.808,75.26192c-1.72168,0 -3.11736,-1.37737 -3.11736,-3.07645c0,-1.69907 1.39569,-3.07645 3.11736,-3.07645c1.72167,0 3.11736,1.37738 3.11736,3.07645c0,1.69907 -1.39569,3.07645 -3.11736,3.07645z" stroke-width="0.5"/><path d="M18.12849,81.04617c-1.77553,0 -3.21487,-1.4166 -3.21487,-3.16406c0,-1.74747 1.43935,-3.16406 3.21487,-3.16406c1.77553,0 3.21487,1.4166 3.21487,3.16406c0,1.74747 -1.43935,3.16406 -3.21487,3.16406z" stroke-width="0.5"/><path d="M59.808,81.20992c-1.72168,0 -3.11736,-1.37737 -3.11736,-3.07645c0,-1.69907 1.39569,-3.07645 3.11736,-3.07645c1.72167,0 3.11736,1.37738 3.11736,3.07645c0,1.69907 -1.39569,3.07645 -3.11736,3.07645z" stroke-width="0.5"/><path d="M14.93402,78.13256v-5.948h48.03909v5.948z" stroke-width="0"/></g><g fill="#9a49aa" stroke="none" stroke-linecap="butt"><path d="M18.12849,72.89068c-1.77553,0 -3.21487,-1.4166 -3.21487,-3.16406c0,-1.74747 1.43935,-3.16406 3.21487,-3.16406c1.77553,0 3.21487,1.4166 3.21487,3.16406c0,1.74747 -1.43935,3.16406 -3.21487,3.16406z" stroke-width="0.5"/><path d="M18.08161,78.65559v-12.0949h41.89606v12.0949z" stroke-width="0"/><path d="M59.808,72.76192c-1.72168,0 -3.11736,-1.37737 -3.11736,-3.07645c0,-1.69907 1.39569,-3.07645 3.11736,-3.07645c1.72167,0 3.11736,1.37738 3.11736,3.07645c0,1.69907 -1.39569,3.07645 -3.11736,3.07645z" stroke-width="0.5"/><path d="M18.12849,78.54617c-1.77553,0 -3.21487,-1.4166 -3.21487,-3.16406c0,-1.74747 1.43935,-3.16406 3.21487,-3.16406c1.77553,0 3.21487,1.4166 3.21487,3.16406c0,1.74747 -1.43935,3.16406 -3.21487,3.16406z" stroke-width="0.5"/><path d="M59.808,78.70992c-1.72168,0 -3.11736,-1.37737 -3.11736,-3.07645c0,-1.69907 1.39569,-3.07645 3.11736,-3.07645c1.72167,0 3.11736,1.37738 3.11736,3.07645c0,1.69907 -1.39569,3.07645 -3.11736,3.07645z" stroke-width="0.5"/><path d="M14.93402,75.63256v-5.948h48.03909v5.948z" stroke-width="0"/></g><g fill="#353535" stroke="none" stroke-linecap="butt"><path d="M76.30423,82.05775v-6.26157h41.89607v6.26157z" stroke-width="0"/><path d="M76.35111,81.94833c-1.77553,0 -3.21487,-1.37929 -3.21487,-3.08073c0,-1.70144 1.43934,-3.08073 3.21487,-3.08073c1.77553,0 3.21487,1.37929 3.21487,3.08073c0,1.70144 -1.43935,3.08073 -3.21487,3.08073z" stroke-width="0.5"/><path d="M118.03062,81.94542c-1.72168,0 -3.11736,-1.37737 -3.11736,-3.07644c0,-1.69907 1.39569,-3.07645 3.11736,-3.07645c1.72167,0 3.11736,1.37738 3.11736,3.07645c0,1.69907 -1.39569,3.07644 -3.11736,3.07644z" stroke-width="0.5"/></g><g fill="#b27215" stroke="none" stroke-linecap="butt"><path d="M76.26778,74.95952c-1.77553,0 -3.21487,-1.4166 -3.21487,-3.16406c0,-1.74747 1.43934,-3.16406 3.21487,-3.16406c1.77553,0 3.21487,1.4166 3.21487,3.16406c0,1.74747 -1.43935,3.16406 -3.21487,3.16406z" stroke-width="0.5"/><path d="M76.2209,80.72442v-12.0949h41.89607v12.0949z" stroke-width="0"/><path d="M117.94728,74.83075c-1.72168,0 -3.11736,-1.37737 -3.11736,-3.07645c0,-1.69907 1.39569,-3.07645 3.11736,-3.07645c1.72167,0 3.11736,1.37738 3.11736,3.07645c0,1.69907 -1.39569,3.07645 -3.11736,3.07645z" stroke-width="0.5"/><path d="M76.26778,80.615c-1.77553,0 -3.21487,-1.4166 -3.21487,-3.16406c0,-1.74747 1.43934,-3.16406 3.21487,-3.16406c1.77553,0 3.21487,1.4166 3.21487,3.16406c0,1.74747 -1.43935,3.16406 -3.21487,3.16406z" stroke-width="0.5"/><path d="M117.94728,80.77875c-1.72168,0 -3.11736,-1.37737 -3.11736,-3.07644c0,-1.69907 1.39569,-3.07645 3.11736,-3.07645c1.72167,0 3.11736,1.37738 3.11736,3.07645c0,1.69907 -1.39569,3.07644 -3.11736,3.07644z" stroke-width="0.5"/><path d="M73.0733,77.70139v-5.948h48.03909v5.948z" stroke-width="0"/></g><g fill="#ffa31e" stroke="none" stroke-linecap="butt"><path d="M76.26778,72.45952c-1.77553,0 -3.21487,-1.4166 -3.21487,-3.16406c0,-1.74747 1.43934,-3.16406 3.21487,-3.16406c1.77553,0 3.21487,1.4166 3.21487,3.16406c0,1.74747 -1.43935,3.16406 -3.21487,3.16406z" stroke-width="0.5"/><path d="M76.2209,78.22442v-12.0949h41.89607v12.0949z" stroke-width="0"/><path d="M117.94728,72.33075c-1.72168,0 -3.11736,-1.37737 -3.11736,-3.07645c0,-1.69907 1.39569,-3.07645 3.11736,-3.07645c1.72167,0 3.11736,1.37738 3.11736,3.07645c0,1.69907 -1.39569,3.07645 -3.11736,3.07645z" stroke-width="0.5"/><path d="M76.26778,78.115c-1.77553,0 -3.21487,-1.4166 -3.21487,-3.16406c0,-1.74747 1.43934,-3.16406 3.21487,-3.16406c1.77553,0 3.21487,1.4166 3.21487,3.16406c0,1.74747 -1.43935,3.16406 -3.21487,3.16406z" stroke-width="0.5"/><path d="M117.94728,78.27875c-1.72168,0 -3.11736,-1.37737 -3.11736,-3.07644c0,-1.69907 1.39569,-3.07645 3.11736,-3.07645c1.72167,0 3.11736,1.37738 3.11736,3.07645c0,1.69907 -1.39569,3.07644 -3.11736,3.07644z" stroke-width="0.5"/><path d="M73.0733,75.20139v-5.948h48.03909v5.948z" stroke-width="0"/></g><g fill="#353535" stroke="none" stroke-linecap="butt"><path d="M134.53712,82.66825v-6.26157h41.89606v6.26157z" stroke-width="0"/><path d="M134.584,82.55883c-1.77553,0 -3.21487,-1.37929 -3.21487,-3.08073c0,-1.70144 1.43935,-3.08073 3.21487,-3.08073c1.77553,0 3.21487,1.37929 3.21487,3.08073c0,1.70144 -1.43935,3.08073 -3.21487,3.08073z" stroke-width="0.5"/><path d="M176.26351,82.55593c-1.72168,0 -3.11737,-1.37737 -3.11737,-3.07645c0,-1.69907 1.39569,-3.07645 3.11737,-3.07645c1.72167,0 3.11736,1.37738 3.11736,3.07645c0,1.69907 -1.39569,3.07645 -3.11736,3.07645z" stroke-width="0.5"/></g><g fill="#1566b2" stroke="none" stroke-linecap="butt"><path d="M134.50066,75.57c-1.77553,0 -3.21487,-1.4166 -3.21487,-3.16406c0,-1.74747 1.43935,-3.16406 3.21487,-3.16406c1.77553,0 3.21488,1.4166 3.21488,3.16406c0,1.74747 -1.43935,3.16406 -3.21488,3.16406z" stroke-width="0.5"/><path d="M134.45378,81.33491v-12.0949h41.89606v12.0949z" stroke-width="0"/><path d="M176.18017,75.44124c-1.72168,0 -3.11737,-1.37737 -3.11737,-3.07645c0,-1.69907 1.39569,-3.07645 3.11737,-3.07645c1.72167,0 3.11736,1.37738 3.11736,3.07645c0,1.69907 -1.39569,3.07645 -3.11736,3.07645z" stroke-width="0.5"/><path d="M134.50066,81.22549c-1.77553,0 -3.21487,-1.4166 -3.21487,-3.16406c0,-1.74747 1.43935,-3.16406 3.21487,-3.16406c1.77553,0 3.21488,1.4166 3.21488,3.16406c0,1.74747 -1.43935,3.16406 -3.21488,3.16406z" stroke-width="0.5"/><path d="M176.18017,81.38925c-1.72168,0 -3.11737,-1.37737 -3.11737,-3.07644c0,-1.69907 1.39569,-3.07645 3.11737,-3.07645c1.72167,0 3.11736,1.37738 3.11736,3.07645c0,1.69907 -1.39569,3.07644 -3.11736,3.07644z" stroke-width="0.5"/><path d="M131.30619,78.31189v-5.948h48.03909v5.948z" stroke-width="0"/></g><g fill="#1e92ff" stroke="none" stroke-linecap="butt"><path d="M134.50066,73.07c-1.77553,0 -3.21487,-1.4166 -3.21487,-3.16406c0,-1.74747 1.43935,-3.16406 3.21487,-3.16406c1.77553,0 3.21488,1.4166 3.21488,3.16406c0,1.74747 -1.43935,3.16406 -3.21488,3.16406z" stroke-width="0.5"/><path d="M134.45378,78.83491v-12.0949h41.89606v12.0949z" stroke-width="0"/><path d="M176.18017,72.94124c-1.72168,0 -3.11737,-1.37737 -3.11737,-3.07645c0,-1.69907 1.39569,-3.07645 3.11737,-3.07645c1.72167,0 3.11736,1.37738 3.11736,3.07645c0,1.69907 -1.39569,3.07645 -3.11736,3.07645z" stroke-width="0.5"/><path d="M134.50066,78.72549c-1.77553,0 -3.21487,-1.4166 -3.21487,-3.16406c0,-1.74747 1.43935,-3.16406 3.21487,-3.16406c1.77553,0 3.21488,1.4166 3.21488,3.16406c0,1.74747 -1.43935,3.16406 -3.21488,3.16406z" stroke-width="0.5"/><path d="M176.18017,78.88925c-1.72168,0 -3.11737,-1.37737 -3.11737,-3.07644c0,-1.69907 1.39569,-3.07645 3.11737,-3.07645c1.72167,0 3.11736,1.37738 3.11736,3.07645c0,1.69907 -1.39569,3.07644 -3.11736,3.07644z" stroke-width="0.5"/><path d="M131.30619,75.81189v-5.948h48.03909v5.948z" stroke-width="0"/></g><path d="M77.89384,62.3676v-7.55748h101.27471v7.55749z" fill="#50425b" stroke="none" stroke-width="0" stroke-linecap="butt"/><path d="M77.62708,62.36338c-2.05285,0 -3.71703,-1.66418 -3.71703,-3.71703c0,-2.05286 1.66418,-3.71702 3.71703,-3.71702c2.05285,0 3.71703,1.66417 3.71703,3.71702c0,2.05286 -1.66417,3.71703 -3.71703,3.71703z" fill="#50425b" stroke="none" stroke-width="0.5" stroke-linecap="butt"/><path d="M179.62487,62.35222c-2.05285,0 -3.71703,-1.66871 -3.71703,-3.72715c0,-2.05844 1.66418,-3.72714 3.71703,-3.72714c2.05285,0 3.71702,1.6687 3.71702,3.72715c0,2.05844 -1.66416,3.72715 -3.71702,3.72715z" fill="#50425b" stroke="none" stroke-width="0.5" stroke-linecap="butt"/><path d="M67.25208,58.64636c0,-3.2907 2.66764,-5.95833 5.95833,-5.95833c3.2907,0 5.95833,2.66764 5.95833,5.95833c0,3.2907 -2.66764,5.95833 -5.95833,5.95833c-3.2907,0 -5.95833,-2.66764 -5.95833,-5.95833z" fill="#9966ff" stroke="none" stroke-width="0.5" stroke-linecap="butt"/><path d="M73.6544,91.82458c0,-3.29069 2.66764,-5.95833 5.95833,-5.95833c3.29069,0 5.95833,2.66764 5.95833,5.95833c0,3.29069 -2.66764,5.95833 -5.95833,5.95833c-3.29069,0 -5.95833,-2.66764 -5.95833,-5.95833z" fill="#ffffff" stroke="none" stroke-width="0.5" stroke-linecap="butt"/><path d="M59.16875,91.82459c0,-3.29069 2.66764,-5.95833 5.95833,-5.95833c3.29069,0 5.95833,2.66764 5.95833,5.95833c0,3.29069 -2.66764,5.95833 -5.95833,5.95833c-3.29069,0 -5.95833,-2.66764 -5.95833,-5.95833z" fill="#ffffff" stroke="none" stroke-width="0.5" stroke-linecap="butt"/><path d="M56.94742,63.53962h-36.40346c-3.21872,0 -5.82801,-2.60929 -5.82801,-5.82801v-7.92661h48.05949v7.92661c0,3.21872 -2.60929,5.82801 -5.82801,5.82801z" fill="url(#color-1)" stroke="none" stroke-width="1" stroke-linecap="butt"/><path d="M62.77543,50.24316c0,3.21872 -2.60929,5.82801 -5.82801,5.82801h-36.40346c-3.21872,0 -5.82801,-2.60929 -5.82801,-5.82801v-29.17852c0,-5.34422 4.87483,-12.79344 8.39439,-12.79344c2.43501,0 5.52044,3.20397 7.1881,7.20892h3.23601c0.71769,-1.87592 2.5023,-4.78192 6.72833,-4.78192l-1.30562,3.82073c0,0 2.12744,-1.74135 4.59449,-1.74135l0.45817,2.70255h3.32251c1.6981,-3.83515 4.68099,-7.20892 7.04873,-7.20892c3.51956,0 8.39439,6.69629 8.39439,12.79344z" fill="#414042" stroke="none" stroke-width="1" stroke-linecap="butt"/><path d="M57.54656,56.07438c0,0 -3.51796,7.46524 -7.92341,7.46524h-21.75493c-4.40545,0 -7.92501,-7.46524 -7.92501,-7.46524z" fill="url(#color-2)" stroke="none" stroke-width="1" stroke-linecap="butt"/><path d="M51.91719,45.56697c5.80559,0.45656 10.14536,1.25115 10.85824,2.38215v2.29404c0,3.21872 -2.60929,5.82801 -5.82801,5.82801h-36.40346c-3.21872,0 -5.82801,-2.60929 -5.82801,-5.82801v-2.29404c0.71448,-1.131 5.05265,-1.92558 10.85504,-2.38695c1.58677,-0.12555 3.0532,-0.89447 4.05887,-2.12826c1.00567,-1.23379 1.46311,-2.82514 1.26612,-4.40463c-0.99323,-7.92181 -0.974,-19.6307 7.84972,-19.6307c8.82372,0 8.84615,11.70409 7.84972,19.6307c-0.19793,1.57949 0.25864,3.17123 1.26373,4.40564c1.00508,1.23441 2.47124,2.00414 4.05806,2.13045z" fill="#e4f5fd" stroke="none" stroke-width="1" stroke-linecap="butt"/><path d="M55.41272,50.40336c0,-1.22715 1.26161,-2.22195 2.81789,-2.22195c1.55628,0 2.81789,0.9948 2.81789,2.22195c0,1.22715 -1.26161,2.22195 -2.81789,2.22195c-1.55628,0 -2.81789,-0.9948 -2.81789,-2.22195z" fill="url(#color-3)" stroke="none" stroke-width="1" stroke-linecap="butt"/><path d="M16.44288,50.40336c0,-1.22715 1.26161,-2.22195 2.81789,-2.22195c1.55628,0 2.81789,0.9948 2.81789,2.22195c0,1.22715 -1.26161,2.22195 -2.81789,2.22195c-1.55628,0 -2.81789,-0.9948 -2.81789,-2.22195z" fill="url(#color-4)" stroke="none" stroke-width="1" stroke-linecap="butt"/><g fill="#231f20" stroke="none" stroke-width="1" stroke-linecap="butt"><path d="M47.29707,40.14106c0,-3.90618 3.16658,-7.07276 7.07276,-7.07276c3.90618,0 7.07276,3.16658 7.07276,7.07276c0,3.90618 -3.16658,7.07276 -7.07276,7.07276c-3.90618,0 -7.07276,-3.16658 -7.07276,-7.07276z"/><path d="M16.04879,40.14106c0,-3.90618 3.16658,-7.07276 7.07276,-7.07276c3.90618,0 7.07276,3.16658 7.07276,7.07276c0,3.90618 -3.16658,7.07276 -7.07276,7.07276c-3.90618,0 -7.07276,-3.16658 -7.07276,-7.07276z"/></g><g fill="#ffffff" stroke="none" stroke-width="1" stroke-linecap="butt"><path d="M47.29707,42.10509c0,-3.90618 3.16658,-7.07276 7.07276,-7.07276c3.90618,0 7.07276,3.16658 7.07276,7.07276c0,3.90618 -3.16658,7.07276 -7.07276,7.07276c-3.90618,0 -7.07276,-3.16658 -7.07276,-7.07276z"/><path d="M16.04879,42.10509c0,-3.90618 3.16658,-7.07276 7.07276,-7.07276c3.90618,0 7.07276,3.16658 7.07276,7.07276c0,3.90618 -3.16658,7.07276 -7.07276,7.07276c-3.90618,0 -7.07276,-3.16658 -7.07276,-7.07276z"/></g><path d="M29.28437,41.08623c0.39376,1.84583 -0.41873,3.73942 -2.02776,4.72591c-1.60904,0.98648 -3.66516,0.8516 -5.13154,-0.33662c-1.46638,-1.18822 -2.02454,-3.17173 -1.39301,-4.9503c0.63152,-1.77857 2.31557,-2.96593 4.20293,-2.96334c0.20958,0.00036 0.41888,0.01535 0.62637,0.04486c-0.77017,1.0475 -0.63408,2.5057 0.31663,3.39259c0.95071,0.88689 2.41484,0.92149 3.40638,0.08051zM24.12599,43.85606c0,-0.58394 -0.47337,-1.05731 -1.05731,-1.05731c-0.58394,0 -1.05731,0.47337 -1.05731,1.05731c0,0.58394 0.47337,1.05731 1.05731,1.05731c0.58394,0 1.05731,-0.47337 1.05731,-1.05731zM54.76285,45.86066c-1.68798,0.96228 -3.80547,0.71591 -5.22743,-0.60821c-1.42196,-1.32412 -1.81839,-3.41871 -0.97866,-5.17089c0.83972,-1.75218 2.72073,-2.75532 4.64361,-2.47644c-0.69563,1.04517 -0.53181,2.44038 0.38701,3.29599c0.91882,0.85561 2.32216,0.91972 3.31517,0.15148c0.41501,1.89817 -0.45173,3.84579 -2.13971,4.80807zM50.65002,44.91016c0.28153,0.00171 0.55211,-0.10893 0.75178,-0.3074c0.19967,-0.19847 0.31195,-0.46838 0.31194,-0.74991c0,-0.58373 -0.47305,-1.05701 -1.05678,-1.05731c-0.58373,-0.00029 -1.05725,0.47251 -1.05784,1.05624c-0.00059,0.58373 0.47198,1.05749 1.05571,1.05838z" fill="#414042" stroke="none" stroke-width="1" stroke-linecap="butt"/><path d="M30.50508,50.74458c8.2406,2.67051 8.2406,-5.3346 8.2406,-5.3346c0,0 0,8.00992 8.2406,5.3346" fill="none" stroke="#414042" stroke-width="3" stroke-linecap="round"/><path d="M34.20887,42.39345c0,-1.92238 9.07043,-1.68849 9.07043,0c0,1.68849 -2.63366,3.73262 -4.53361,3.73262c-1.89995,0 -4.53361,-1.81024 -4.53361,-3.73262z" fill="#414042" stroke="none" stroke-width="1" stroke-linecap="butt"/><g fill="#e4f5fd" stroke="none" stroke-width="1" stroke-linecap="butt"><path d="M23.09333,33.62491c-2.48167,-0.59717 -4.16843,-2.432 -3.76749,-4.0982c0.40094,-1.6662 2.73776,-2.53282 5.21943,-1.93565c2.48167,0.59717 4.16843,2.43199 3.76749,4.09819c-0.40094,1.6662 -2.73776,2.53283 -5.21943,1.93566z"/><path d="M49.17712,31.7077c-0.40094,-1.6662 1.28582,-3.50103 3.76749,-4.0982c2.48167,-0.59717 4.81848,0.26946 5.21943,1.93566c0.40094,1.6662 -1.28582,3.50103 -3.76749,4.09819c-2.48167,0.59717 -4.81849,-0.26945 -5.21943,-1.93565z"/></g><path d="M60.48299,20.35817c0,0.03684 -0.14097,0.27874 -0.80099,0.55749c-0.66002,0.27875 -1.59237,0.49181 -2.71376,0.62477c-2.57066,-1.83633 -5.42246,-3.24302 -8.44405,-4.16516c0.55152,-1.67536 1.3812,-3.24589 2.45424,-4.64575c1.15343,-1.48344 2.40297,-2.40298 3.26324,-2.40298c2.23637,0 6.24293,5.04945 6.24133,10.03162z" fill="#ecf7fe" stroke="none" stroke-width="1" stroke-linecap="butt"/><path d="M49.99962,17.87029c0.4566,-1.01459 1.02969,-1.9726 1.70771,-2.85473c1.15984,-1.48984 2.1018,-1.97044 2.37734,-1.97044c0.40049,0 1.66606,0.64079 3.01173,2.61924c1.1326,1.66766 1.87592,3.6365 2.06175,5.42271c-0.71515,0.21278 -1.44812,0.36023 -2.18991,0.44055c-2.14483,-1.53359 -4.49016,-2.76528 -6.97023,-3.66053z" fill="#dd7399" stroke="none" stroke-width="1" stroke-linecap="butt"/><path d="M17.00838,20.34696c0,-4.96935 4.00496,-10.0204 6.24773,-10.02361c0.86027,0 2.10981,0.92274 3.26324,2.40297c1.07304,1.39986 1.90272,2.97039 2.45424,4.64575c-3.02389,0.91886 -5.87842,2.32286 -8.45206,4.15715c-1.12139,-0.13297 -2.05214,-0.34603 -2.71376,-0.62477c-0.66162,-0.27875 -0.80099,-0.52064 -0.80099,-0.55749z" fill="#ecf7fe" stroke="none" stroke-width="1" stroke-linecap="butt"/><path d="M27.49335,17.86709c-2.48007,0.89525 -4.8254,2.12694 -6.97023,3.66053c-0.74179,-0.08032 -1.47477,-0.22777 -2.18991,-0.44055c0.18583,-1.78621 0.92915,-3.75505 2.06175,-5.42271c1.34567,-1.97845 2.61123,-2.61924 3.01173,-2.61924c0.27554,0 1.21751,0.4806 2.37734,1.97044c0.67802,0.88213 1.25112,1.84015 1.70771,2.85473z" fill="#dd7399" stroke="none" stroke-width="1" stroke-linecap="butt"/><g fill="#ffa31e" stroke="none" stroke-linecap="butt"><path d="M92.82971,92.07997c-1.77553,0 -3.21487,-1.4166 -3.21487,-3.16406c0,-1.74747 1.43934,-3.16406 3.21487,-3.16406c1.77553,0 3.21487,1.4166 3.21487,3.16406c0,1.74747 -1.43935,3.16406 -3.21487,3.16406z" stroke-width="0.5"/><path d="M92.78283,97.84487v-12.0949h41.89607v12.0949z" stroke-width="0"/><path d="M134.50921,91.9512c-1.72168,0 -3.11736,-1.37737 -3.11736,-3.07645c0,-1.69907 1.39569,-3.07645 3.11736,-3.07645c1.72167,0 3.11736,1.37738 3.11736,3.07645c0,1.69907 -1.39569,3.07645 -3.11736,3.07645z" stroke-width="0.5"/><path d="M92.82971,97.73545c-1.77553,0 -3.21487,-1.4166 -3.21487,-3.16406c0,-1.74747 1.43934,-3.16406 3.21487,-3.16406c1.77553,0 3.21487,1.4166 3.21487,3.16406c0,1.74747 -1.43935,3.16406 -3.21487,3.16406z" stroke-width="0.5"/><path d="M134.50921,97.8992c-1.72168,0 -3.11736,-1.37737 -3.11736,-3.07644c0,-1.69907 1.39569,-3.07645 3.11736,-3.07645c1.72167,0 3.11736,1.37738 3.11736,3.07645c0,1.69907 -1.39569,3.07644 -3.11736,3.07644z" stroke-width="0.5"/><path d="M89.63523,94.82184v-5.948h48.03909v5.948z" stroke-width="0"/></g><path d="M71.79636,50.00888c-1.77553,0 -3.21487,-1.4166 -3.21487,-3.16406c0,-1.74747 1.43934,-3.16406 3.21487,-3.16406c1.77553,0 3.21487,1.4166 3.21487,3.16406c0,1.74747 -1.43935,3.16406 -3.21487,3.16406z" fill="#514ba3" stroke="none" stroke-width="0.5" stroke-linecap="butt"/><path d="M71.55231,50.00973v-27.24725h108.90658v27.24725z" fill="#514ba3" stroke="none" stroke-width="0" stroke-linecap="butt"/><path d="M180.43743,50.00424c-1.72168,0 -3.11736,-1.37737 -3.11736,-3.07645c0,-1.69907 1.39569,-3.07645 3.11736,-3.07645c1.72167,0 3.11736,1.37738 3.11736,3.07645c0,1.69907 -1.39569,3.07645 -3.11736,3.07645z" fill="#514ba3" stroke="none" stroke-width="0.5" stroke-linecap="butt"/><path d="M68.60969,46.99686v-24.3588h114.94541v24.3588z" fill="#514ba3" stroke="none" stroke-width="0" stroke-linecap="butt"/><g fill="#655dca" stroke="none" stroke-linecap="butt"><path d="M71.75592,22.86674c-1.77553,0 -3.21487,-1.4166 -3.21487,-3.16406c0,-1.74747 1.43934,-3.16406 3.21487,-3.16406c1.77553,0 3.21487,1.4166 3.21487,3.16406c0,1.74747 -1.43935,3.16406 -3.21487,3.16406z" stroke-width="0.5"/><path d="M71.75343,46.78486c-1.77553,0 -3.21487,-1.4166 -3.21487,-3.16406c0,-1.74747 1.43934,-3.16406 3.21487,-3.16406c1.77553,0 3.21487,1.4166 3.21487,3.16406c0,1.74747 -1.43935,3.16406 -3.21487,3.16406z" stroke-width="0.5"/><path d="M71.50939,46.78572v-30.24726h108.90658v30.24726z" stroke-width="0"/><path d="M180.3945,46.78023c-1.72168,0 -3.11736,-1.37737 -3.11736,-3.07645c0,-1.69907 1.39569,-3.07645 3.11736,-3.07645c1.72167,0 3.11736,1.37738 3.11736,3.07645c0,1.69907 -1.39569,3.07645 -3.11736,3.07645z" stroke-width="0.5"/><path d="M180.39233,22.69993c-1.72168,0 -3.11736,-1.37737 -3.11736,-3.07644c0,-1.69907 1.39569,-3.07645 3.11736,-3.07645c1.72167,0 3.11736,1.37738 3.11736,3.07645c0,1.69907 -1.39569,3.07644 -3.11736,3.07644z" stroke-width="0.5"/><path d="M68.56676,43.77285v-24.35881h114.94542v24.35881z" stroke-width="0"/></g></g></g></svg>